M48
; DRILL file {KiCad 8.0.1-118-g9a728c37df} date 2024-04-29T20:58:50+0100
; FORMAT={-:-/ absolute / metric / decimal}
; #@! TF.CreationDate,2024-04-29T20:58:50+01:00
; #@! TF.GenerationSoftware,Kicad,Pcbnew,8.0.1-118-g9a728c37df
; #@! TF.FileFunction,MixedPlating,1,2
FMAT,2
METRIC
; #@! TA.AperFunction,Plated,PTH,ViaDrill
T1C0.400
; #@! TA.AperFunction,Plated,PTH,ComponentDrill
T2C0.800
; #@! TA.AperFunction,Plated,PTH,ComponentDrill
T3C1.000
%
G90
G05
T1
X101.475Y-67.684
X102.085Y-70.219
X102.925Y-67.315
X104.26Y-62.839
X104.38Y-69.093
X104.83Y-70.363
T2
X99.06Y-61.214
X99.06Y-63.754
X99.06Y-66.294
X99.06Y-68.834
X99.06Y-71.374
X99.06Y-73.914
X99.06Y-76.454
X106.68Y-61.214
X106.68Y-63.754
X106.68Y-66.294
X106.68Y-68.834
X106.68Y-71.374
X106.68Y-73.914
X106.68Y-76.454
T3
X101.59Y-76.459
X104.13Y-76.459
M30
