%TF.GenerationSoftware,KiCad,Pcbnew,9.0.1*%
%TF.CreationDate,2025-05-01T11:14:46+01:00*%
%TF.ProjectId,SerialULA,53657269-616c-4554-9c41-2e6b69636164,01*%
%TF.SameCoordinates,Original*%
%TF.FileFunction,Legend,Bot*%
%TF.FilePolarity,Positive*%
%FSLAX46Y46*%
G04 Gerber Fmt 4.6, Leading zero omitted, Abs format (unit mm)*
G04 Created by KiCad (PCBNEW 9.0.1) date 2025-05-01 11:14:46*
%MOMM*%
%LPD*%
G01*
G04 APERTURE LIST*
%ADD10C,0.150000*%
%ADD11C,0.100000*%
%ADD12C,0.120000*%
G04 APERTURE END LIST*
D10*
X79698000Y-39746000D02*
X87698000Y-39746000D01*
X87698000Y-47746000D01*
X79698000Y-47746000D01*
X79698000Y-39746000D01*
G36*
X79698000Y-39746000D02*
G01*
X87698000Y-39746000D01*
X87698000Y-47746000D01*
X79698000Y-47746000D01*
X79698000Y-39746000D01*
G37*
D11*
X91193544Y-73564133D02*
X91426877Y-73230800D01*
X91593544Y-73564133D02*
X91593544Y-72864133D01*
X91593544Y-72864133D02*
X91326877Y-72864133D01*
X91326877Y-72864133D02*
X91260211Y-72897466D01*
X91260211Y-72897466D02*
X91226877Y-72930800D01*
X91226877Y-72930800D02*
X91193544Y-72997466D01*
X91193544Y-72997466D02*
X91193544Y-73097466D01*
X91193544Y-73097466D02*
X91226877Y-73164133D01*
X91226877Y-73164133D02*
X91260211Y-73197466D01*
X91260211Y-73197466D02*
X91326877Y-73230800D01*
X91326877Y-73230800D02*
X91593544Y-73230800D01*
X90626877Y-73530800D02*
X90693544Y-73564133D01*
X90693544Y-73564133D02*
X90826877Y-73564133D01*
X90826877Y-73564133D02*
X90893544Y-73530800D01*
X90893544Y-73530800D02*
X90926877Y-73464133D01*
X90926877Y-73464133D02*
X90926877Y-73197466D01*
X90926877Y-73197466D02*
X90893544Y-73130800D01*
X90893544Y-73130800D02*
X90826877Y-73097466D01*
X90826877Y-73097466D02*
X90693544Y-73097466D01*
X90693544Y-73097466D02*
X90626877Y-73130800D01*
X90626877Y-73130800D02*
X90593544Y-73197466D01*
X90593544Y-73197466D02*
X90593544Y-73264133D01*
X90593544Y-73264133D02*
X90926877Y-73330800D01*
X90360211Y-73097466D02*
X90193544Y-73564133D01*
X90193544Y-73564133D02*
X90026877Y-73097466D01*
X89093545Y-72864133D02*
X89026878Y-72864133D01*
X89026878Y-72864133D02*
X88960211Y-72897466D01*
X88960211Y-72897466D02*
X88926878Y-72930800D01*
X88926878Y-72930800D02*
X88893545Y-72997466D01*
X88893545Y-72997466D02*
X88860211Y-73130800D01*
X88860211Y-73130800D02*
X88860211Y-73297466D01*
X88860211Y-73297466D02*
X88893545Y-73430800D01*
X88893545Y-73430800D02*
X88926878Y-73497466D01*
X88926878Y-73497466D02*
X88960211Y-73530800D01*
X88960211Y-73530800D02*
X89026878Y-73564133D01*
X89026878Y-73564133D02*
X89093545Y-73564133D01*
X89093545Y-73564133D02*
X89160211Y-73530800D01*
X89160211Y-73530800D02*
X89193545Y-73497466D01*
X89193545Y-73497466D02*
X89226878Y-73430800D01*
X89226878Y-73430800D02*
X89260211Y-73297466D01*
X89260211Y-73297466D02*
X89260211Y-73130800D01*
X89260211Y-73130800D02*
X89226878Y-72997466D01*
X89226878Y-72997466D02*
X89193545Y-72930800D01*
X89193545Y-72930800D02*
X89160211Y-72897466D01*
X89160211Y-72897466D02*
X89093545Y-72864133D01*
X88193544Y-73564133D02*
X88593544Y-73564133D01*
X88393544Y-73564133D02*
X88393544Y-72864133D01*
X88393544Y-72864133D02*
X88460211Y-72964133D01*
X88460211Y-72964133D02*
X88526878Y-73030800D01*
X88526878Y-73030800D02*
X88593544Y-73064133D01*
D10*
X89364904Y-55827026D02*
X89460143Y-55779407D01*
X89460143Y-55779407D02*
X89650619Y-55779407D01*
X89650619Y-55779407D02*
X89745857Y-55827026D01*
X89745857Y-55827026D02*
X89841095Y-55922264D01*
X89841095Y-55922264D02*
X89888714Y-56017502D01*
X89888714Y-56017502D02*
X89888714Y-56207978D01*
X89888714Y-56207978D02*
X89841095Y-56303216D01*
X89841095Y-56303216D02*
X89745857Y-56398454D01*
X89745857Y-56398454D02*
X89650619Y-56446073D01*
X89650619Y-56446073D02*
X89460143Y-56446073D01*
X89460143Y-56446073D02*
X89364904Y-56398454D01*
X89555381Y-55446073D02*
X89793476Y-55493692D01*
X89793476Y-55493692D02*
X90031571Y-55636550D01*
X90031571Y-55636550D02*
X90174428Y-55874645D01*
X90174428Y-55874645D02*
X90222047Y-56112740D01*
X90222047Y-56112740D02*
X90174428Y-56350835D01*
X90174428Y-56350835D02*
X90031571Y-56588931D01*
X90031571Y-56588931D02*
X89793476Y-56731788D01*
X89793476Y-56731788D02*
X89555381Y-56779407D01*
X89555381Y-56779407D02*
X89317285Y-56731788D01*
X89317285Y-56731788D02*
X89079190Y-56588931D01*
X89079190Y-56588931D02*
X88936333Y-56350835D01*
X88936333Y-56350835D02*
X88888714Y-56112740D01*
X88888714Y-56112740D02*
X88936333Y-55874645D01*
X88936333Y-55874645D02*
X89079190Y-55636550D01*
X89079190Y-55636550D02*
X89317285Y-55493692D01*
X89317285Y-55493692D02*
X89555381Y-55446073D01*
X87698237Y-56588931D02*
X87698237Y-55588931D01*
X87126809Y-56588931D02*
X87555380Y-56017502D01*
X87126809Y-55588931D02*
X87698237Y-56160359D01*
X86317285Y-56541312D02*
X86412523Y-56588931D01*
X86412523Y-56588931D02*
X86602999Y-56588931D01*
X86602999Y-56588931D02*
X86698237Y-56541312D01*
X86698237Y-56541312D02*
X86745856Y-56446073D01*
X86745856Y-56446073D02*
X86745856Y-56065121D01*
X86745856Y-56065121D02*
X86698237Y-55969883D01*
X86698237Y-55969883D02*
X86602999Y-55922264D01*
X86602999Y-55922264D02*
X86412523Y-55922264D01*
X86412523Y-55922264D02*
X86317285Y-55969883D01*
X86317285Y-55969883D02*
X86269666Y-56065121D01*
X86269666Y-56065121D02*
X86269666Y-56160359D01*
X86269666Y-56160359D02*
X86745856Y-56255597D01*
X85841094Y-55922264D02*
X85841094Y-56588931D01*
X85841094Y-56017502D02*
X85793475Y-55969883D01*
X85793475Y-55969883D02*
X85698237Y-55922264D01*
X85698237Y-55922264D02*
X85555380Y-55922264D01*
X85555380Y-55922264D02*
X85460142Y-55969883D01*
X85460142Y-55969883D02*
X85412523Y-56065121D01*
X85412523Y-56065121D02*
X85412523Y-56588931D01*
X83698237Y-56588931D02*
X84174427Y-56588931D01*
X84174427Y-56588931D02*
X84174427Y-55588931D01*
X83222046Y-56588931D02*
X83317284Y-56541312D01*
X83317284Y-56541312D02*
X83364903Y-56493692D01*
X83364903Y-56493692D02*
X83412522Y-56398454D01*
X83412522Y-56398454D02*
X83412522Y-56112740D01*
X83412522Y-56112740D02*
X83364903Y-56017502D01*
X83364903Y-56017502D02*
X83317284Y-55969883D01*
X83317284Y-55969883D02*
X83222046Y-55922264D01*
X83222046Y-55922264D02*
X83079189Y-55922264D01*
X83079189Y-55922264D02*
X82983951Y-55969883D01*
X82983951Y-55969883D02*
X82936332Y-56017502D01*
X82936332Y-56017502D02*
X82888713Y-56112740D01*
X82888713Y-56112740D02*
X82888713Y-56398454D01*
X82888713Y-56398454D02*
X82936332Y-56493692D01*
X82936332Y-56493692D02*
X82983951Y-56541312D01*
X82983951Y-56541312D02*
X83079189Y-56588931D01*
X83079189Y-56588931D02*
X83222046Y-56588931D01*
X82555379Y-55922264D02*
X82364903Y-56588931D01*
X82364903Y-56588931D02*
X82174427Y-56112740D01*
X82174427Y-56112740D02*
X81983951Y-56588931D01*
X81983951Y-56588931D02*
X81793475Y-55922264D01*
X81031570Y-56541312D02*
X81126808Y-56588931D01*
X81126808Y-56588931D02*
X81317284Y-56588931D01*
X81317284Y-56588931D02*
X81412522Y-56541312D01*
X81412522Y-56541312D02*
X81460141Y-56446073D01*
X81460141Y-56446073D02*
X81460141Y-56065121D01*
X81460141Y-56065121D02*
X81412522Y-55969883D01*
X81412522Y-55969883D02*
X81317284Y-55922264D01*
X81317284Y-55922264D02*
X81126808Y-55922264D01*
X81126808Y-55922264D02*
X81031570Y-55969883D01*
X81031570Y-55969883D02*
X80983951Y-56065121D01*
X80983951Y-56065121D02*
X80983951Y-56160359D01*
X80983951Y-56160359D02*
X81460141Y-56255597D01*
X90174428Y-58198875D02*
X90222048Y-58198875D01*
X90222048Y-58198875D02*
X90317286Y-58151256D01*
X90317286Y-58151256D02*
X90460143Y-58008398D01*
X90460143Y-58008398D02*
X90698238Y-57722684D01*
X90698238Y-57722684D02*
X90793476Y-57579827D01*
X90793476Y-57579827D02*
X90841095Y-57436970D01*
X90841095Y-57436970D02*
X90841095Y-57341732D01*
X90841095Y-57341732D02*
X90793476Y-57246494D01*
X90793476Y-57246494D02*
X90698238Y-57198875D01*
X90698238Y-57198875D02*
X90650619Y-57198875D01*
X90650619Y-57198875D02*
X90555381Y-57246494D01*
X90555381Y-57246494D02*
X90507762Y-57341732D01*
X90507762Y-57341732D02*
X90507762Y-57389351D01*
X90507762Y-57389351D02*
X90555381Y-57484589D01*
X90555381Y-57484589D02*
X90603000Y-57532208D01*
X90603000Y-57532208D02*
X90888714Y-57722684D01*
X90888714Y-57722684D02*
X90936333Y-57770303D01*
X90936333Y-57770303D02*
X90983952Y-57865541D01*
X90983952Y-57865541D02*
X90983952Y-58008398D01*
X90983952Y-58008398D02*
X90936333Y-58103636D01*
X90936333Y-58103636D02*
X90888714Y-58151256D01*
X90888714Y-58151256D02*
X90793476Y-58198875D01*
X90793476Y-58198875D02*
X90650619Y-58198875D01*
X90650619Y-58198875D02*
X90555381Y-58151256D01*
X90555381Y-58151256D02*
X90507762Y-58103636D01*
X90507762Y-58103636D02*
X90364905Y-57913160D01*
X90364905Y-57913160D02*
X90317286Y-57770303D01*
X90317286Y-57770303D02*
X90317286Y-57675065D01*
X88983952Y-58198875D02*
X88983952Y-57198875D01*
X88983952Y-57198875D02*
X88745857Y-57198875D01*
X88745857Y-57198875D02*
X88603000Y-57246494D01*
X88603000Y-57246494D02*
X88507762Y-57341732D01*
X88507762Y-57341732D02*
X88460143Y-57436970D01*
X88460143Y-57436970D02*
X88412524Y-57627446D01*
X88412524Y-57627446D02*
X88412524Y-57770303D01*
X88412524Y-57770303D02*
X88460143Y-57960779D01*
X88460143Y-57960779D02*
X88507762Y-58056017D01*
X88507762Y-58056017D02*
X88603000Y-58151256D01*
X88603000Y-58151256D02*
X88745857Y-58198875D01*
X88745857Y-58198875D02*
X88983952Y-58198875D01*
X87555381Y-58198875D02*
X87555381Y-57675065D01*
X87555381Y-57675065D02*
X87603000Y-57579827D01*
X87603000Y-57579827D02*
X87698238Y-57532208D01*
X87698238Y-57532208D02*
X87888714Y-57532208D01*
X87888714Y-57532208D02*
X87983952Y-57579827D01*
X87555381Y-58151256D02*
X87650619Y-58198875D01*
X87650619Y-58198875D02*
X87888714Y-58198875D01*
X87888714Y-58198875D02*
X87983952Y-58151256D01*
X87983952Y-58151256D02*
X88031571Y-58056017D01*
X88031571Y-58056017D02*
X88031571Y-57960779D01*
X88031571Y-57960779D02*
X87983952Y-57865541D01*
X87983952Y-57865541D02*
X87888714Y-57817922D01*
X87888714Y-57817922D02*
X87650619Y-57817922D01*
X87650619Y-57817922D02*
X87555381Y-57770303D01*
X87174428Y-57532208D02*
X86936333Y-58198875D01*
X86936333Y-58198875D02*
X86698238Y-57532208D01*
X86317285Y-58198875D02*
X86317285Y-57532208D01*
X86317285Y-57198875D02*
X86364904Y-57246494D01*
X86364904Y-57246494D02*
X86317285Y-57294113D01*
X86317285Y-57294113D02*
X86269666Y-57246494D01*
X86269666Y-57246494D02*
X86317285Y-57198875D01*
X86317285Y-57198875D02*
X86317285Y-57294113D01*
X85412524Y-58198875D02*
X85412524Y-57198875D01*
X85412524Y-58151256D02*
X85507762Y-58198875D01*
X85507762Y-58198875D02*
X85698238Y-58198875D01*
X85698238Y-58198875D02*
X85793476Y-58151256D01*
X85793476Y-58151256D02*
X85841095Y-58103636D01*
X85841095Y-58103636D02*
X85888714Y-58008398D01*
X85888714Y-58008398D02*
X85888714Y-57722684D01*
X85888714Y-57722684D02*
X85841095Y-57627446D01*
X85841095Y-57627446D02*
X85793476Y-57579827D01*
X85793476Y-57579827D02*
X85698238Y-57532208D01*
X85698238Y-57532208D02*
X85507762Y-57532208D01*
X85507762Y-57532208D02*
X85412524Y-57579827D01*
X83841095Y-57675065D02*
X83698238Y-57722684D01*
X83698238Y-57722684D02*
X83650619Y-57770303D01*
X83650619Y-57770303D02*
X83603000Y-57865541D01*
X83603000Y-57865541D02*
X83603000Y-58008398D01*
X83603000Y-58008398D02*
X83650619Y-58103636D01*
X83650619Y-58103636D02*
X83698238Y-58151256D01*
X83698238Y-58151256D02*
X83793476Y-58198875D01*
X83793476Y-58198875D02*
X84174428Y-58198875D01*
X84174428Y-58198875D02*
X84174428Y-57198875D01*
X84174428Y-57198875D02*
X83841095Y-57198875D01*
X83841095Y-57198875D02*
X83745857Y-57246494D01*
X83745857Y-57246494D02*
X83698238Y-57294113D01*
X83698238Y-57294113D02*
X83650619Y-57389351D01*
X83650619Y-57389351D02*
X83650619Y-57484589D01*
X83650619Y-57484589D02*
X83698238Y-57579827D01*
X83698238Y-57579827D02*
X83745857Y-57627446D01*
X83745857Y-57627446D02*
X83841095Y-57675065D01*
X83841095Y-57675065D02*
X84174428Y-57675065D01*
X82745857Y-58198875D02*
X82745857Y-57675065D01*
X82745857Y-57675065D02*
X82793476Y-57579827D01*
X82793476Y-57579827D02*
X82888714Y-57532208D01*
X82888714Y-57532208D02*
X83079190Y-57532208D01*
X83079190Y-57532208D02*
X83174428Y-57579827D01*
X82745857Y-58151256D02*
X82841095Y-58198875D01*
X82841095Y-58198875D02*
X83079190Y-58198875D01*
X83079190Y-58198875D02*
X83174428Y-58151256D01*
X83174428Y-58151256D02*
X83222047Y-58056017D01*
X83222047Y-58056017D02*
X83222047Y-57960779D01*
X83222047Y-57960779D02*
X83174428Y-57865541D01*
X83174428Y-57865541D02*
X83079190Y-57817922D01*
X83079190Y-57817922D02*
X82841095Y-57817922D01*
X82841095Y-57817922D02*
X82745857Y-57770303D01*
X82269666Y-57532208D02*
X82269666Y-58198875D01*
X82269666Y-57627446D02*
X82222047Y-57579827D01*
X82222047Y-57579827D02*
X82126809Y-57532208D01*
X82126809Y-57532208D02*
X81983952Y-57532208D01*
X81983952Y-57532208D02*
X81888714Y-57579827D01*
X81888714Y-57579827D02*
X81841095Y-57675065D01*
X81841095Y-57675065D02*
X81841095Y-58198875D01*
X81364904Y-58198875D02*
X81364904Y-57198875D01*
X81269666Y-57817922D02*
X80983952Y-58198875D01*
X80983952Y-57532208D02*
X81364904Y-57913160D01*
X80602999Y-58151256D02*
X80507761Y-58198875D01*
X80507761Y-58198875D02*
X80317285Y-58198875D01*
X80317285Y-58198875D02*
X80222047Y-58151256D01*
X80222047Y-58151256D02*
X80174428Y-58056017D01*
X80174428Y-58056017D02*
X80174428Y-58008398D01*
X80174428Y-58008398D02*
X80222047Y-57913160D01*
X80222047Y-57913160D02*
X80317285Y-57865541D01*
X80317285Y-57865541D02*
X80460142Y-57865541D01*
X80460142Y-57865541D02*
X80555380Y-57817922D01*
X80555380Y-57817922D02*
X80602999Y-57722684D01*
X80602999Y-57722684D02*
X80602999Y-57675065D01*
X80602999Y-57675065D02*
X80555380Y-57579827D01*
X80555380Y-57579827D02*
X80460142Y-57532208D01*
X80460142Y-57532208D02*
X80317285Y-57532208D01*
X80317285Y-57532208D02*
X80222047Y-57579827D01*
X89055380Y-59808819D02*
X89055380Y-58808819D01*
X89055380Y-58808819D02*
X88722047Y-59523104D01*
X88722047Y-59523104D02*
X88388714Y-58808819D01*
X88388714Y-58808819D02*
X88388714Y-59808819D01*
X87483952Y-59808819D02*
X87483952Y-59285009D01*
X87483952Y-59285009D02*
X87531571Y-59189771D01*
X87531571Y-59189771D02*
X87626809Y-59142152D01*
X87626809Y-59142152D02*
X87817285Y-59142152D01*
X87817285Y-59142152D02*
X87912523Y-59189771D01*
X87483952Y-59761200D02*
X87579190Y-59808819D01*
X87579190Y-59808819D02*
X87817285Y-59808819D01*
X87817285Y-59808819D02*
X87912523Y-59761200D01*
X87912523Y-59761200D02*
X87960142Y-59665961D01*
X87960142Y-59665961D02*
X87960142Y-59570723D01*
X87960142Y-59570723D02*
X87912523Y-59475485D01*
X87912523Y-59475485D02*
X87817285Y-59427866D01*
X87817285Y-59427866D02*
X87579190Y-59427866D01*
X87579190Y-59427866D02*
X87483952Y-59380247D01*
X87102999Y-59142152D02*
X86864904Y-59808819D01*
X86626809Y-59142152D02*
X86864904Y-59808819D01*
X86864904Y-59808819D02*
X86960142Y-60046914D01*
X86960142Y-60046914D02*
X87007761Y-60094533D01*
X87007761Y-60094533D02*
X87102999Y-60142152D01*
X85531570Y-58904057D02*
X85483951Y-58856438D01*
X85483951Y-58856438D02*
X85388713Y-58808819D01*
X85388713Y-58808819D02*
X85150618Y-58808819D01*
X85150618Y-58808819D02*
X85055380Y-58856438D01*
X85055380Y-58856438D02*
X85007761Y-58904057D01*
X85007761Y-58904057D02*
X84960142Y-58999295D01*
X84960142Y-58999295D02*
X84960142Y-59094533D01*
X84960142Y-59094533D02*
X85007761Y-59237390D01*
X85007761Y-59237390D02*
X85579189Y-59808819D01*
X85579189Y-59808819D02*
X84960142Y-59808819D01*
X84341094Y-58808819D02*
X84245856Y-58808819D01*
X84245856Y-58808819D02*
X84150618Y-58856438D01*
X84150618Y-58856438D02*
X84102999Y-58904057D01*
X84102999Y-58904057D02*
X84055380Y-58999295D01*
X84055380Y-58999295D02*
X84007761Y-59189771D01*
X84007761Y-59189771D02*
X84007761Y-59427866D01*
X84007761Y-59427866D02*
X84055380Y-59618342D01*
X84055380Y-59618342D02*
X84102999Y-59713580D01*
X84102999Y-59713580D02*
X84150618Y-59761200D01*
X84150618Y-59761200D02*
X84245856Y-59808819D01*
X84245856Y-59808819D02*
X84341094Y-59808819D01*
X84341094Y-59808819D02*
X84436332Y-59761200D01*
X84436332Y-59761200D02*
X84483951Y-59713580D01*
X84483951Y-59713580D02*
X84531570Y-59618342D01*
X84531570Y-59618342D02*
X84579189Y-59427866D01*
X84579189Y-59427866D02*
X84579189Y-59189771D01*
X84579189Y-59189771D02*
X84531570Y-58999295D01*
X84531570Y-58999295D02*
X84483951Y-58904057D01*
X84483951Y-58904057D02*
X84436332Y-58856438D01*
X84436332Y-58856438D02*
X84341094Y-58808819D01*
X83626808Y-58904057D02*
X83579189Y-58856438D01*
X83579189Y-58856438D02*
X83483951Y-58808819D01*
X83483951Y-58808819D02*
X83245856Y-58808819D01*
X83245856Y-58808819D02*
X83150618Y-58856438D01*
X83150618Y-58856438D02*
X83102999Y-58904057D01*
X83102999Y-58904057D02*
X83055380Y-58999295D01*
X83055380Y-58999295D02*
X83055380Y-59094533D01*
X83055380Y-59094533D02*
X83102999Y-59237390D01*
X83102999Y-59237390D02*
X83674427Y-59808819D01*
X83674427Y-59808819D02*
X83055380Y-59808819D01*
X82150618Y-58808819D02*
X82626808Y-58808819D01*
X82626808Y-58808819D02*
X82674427Y-59285009D01*
X82674427Y-59285009D02*
X82626808Y-59237390D01*
X82626808Y-59237390D02*
X82531570Y-59189771D01*
X82531570Y-59189771D02*
X82293475Y-59189771D01*
X82293475Y-59189771D02*
X82198237Y-59237390D01*
X82198237Y-59237390D02*
X82150618Y-59285009D01*
X82150618Y-59285009D02*
X82102999Y-59380247D01*
X82102999Y-59380247D02*
X82102999Y-59618342D01*
X82102999Y-59618342D02*
X82150618Y-59713580D01*
X82150618Y-59713580D02*
X82198237Y-59761200D01*
X82198237Y-59761200D02*
X82293475Y-59808819D01*
X82293475Y-59808819D02*
X82531570Y-59808819D01*
X82531570Y-59808819D02*
X82626808Y-59761200D01*
X82626808Y-59761200D02*
X82674427Y-59713580D01*
X88912523Y-50223121D02*
X88769666Y-50270740D01*
X88769666Y-50270740D02*
X88722047Y-50318359D01*
X88722047Y-50318359D02*
X88674428Y-50413597D01*
X88674428Y-50413597D02*
X88674428Y-50556454D01*
X88674428Y-50556454D02*
X88722047Y-50651692D01*
X88722047Y-50651692D02*
X88769666Y-50699312D01*
X88769666Y-50699312D02*
X88864904Y-50746931D01*
X88864904Y-50746931D02*
X89245856Y-50746931D01*
X89245856Y-50746931D02*
X89245856Y-49746931D01*
X89245856Y-49746931D02*
X88912523Y-49746931D01*
X88912523Y-49746931D02*
X88817285Y-49794550D01*
X88817285Y-49794550D02*
X88769666Y-49842169D01*
X88769666Y-49842169D02*
X88722047Y-49937407D01*
X88722047Y-49937407D02*
X88722047Y-50032645D01*
X88722047Y-50032645D02*
X88769666Y-50127883D01*
X88769666Y-50127883D02*
X88817285Y-50175502D01*
X88817285Y-50175502D02*
X88912523Y-50223121D01*
X88912523Y-50223121D02*
X89245856Y-50223121D01*
X87912523Y-50223121D02*
X87769666Y-50270740D01*
X87769666Y-50270740D02*
X87722047Y-50318359D01*
X87722047Y-50318359D02*
X87674428Y-50413597D01*
X87674428Y-50413597D02*
X87674428Y-50556454D01*
X87674428Y-50556454D02*
X87722047Y-50651692D01*
X87722047Y-50651692D02*
X87769666Y-50699312D01*
X87769666Y-50699312D02*
X87864904Y-50746931D01*
X87864904Y-50746931D02*
X88245856Y-50746931D01*
X88245856Y-50746931D02*
X88245856Y-49746931D01*
X88245856Y-49746931D02*
X87912523Y-49746931D01*
X87912523Y-49746931D02*
X87817285Y-49794550D01*
X87817285Y-49794550D02*
X87769666Y-49842169D01*
X87769666Y-49842169D02*
X87722047Y-49937407D01*
X87722047Y-49937407D02*
X87722047Y-50032645D01*
X87722047Y-50032645D02*
X87769666Y-50127883D01*
X87769666Y-50127883D02*
X87817285Y-50175502D01*
X87817285Y-50175502D02*
X87912523Y-50223121D01*
X87912523Y-50223121D02*
X88245856Y-50223121D01*
X86674428Y-50651692D02*
X86722047Y-50699312D01*
X86722047Y-50699312D02*
X86864904Y-50746931D01*
X86864904Y-50746931D02*
X86960142Y-50746931D01*
X86960142Y-50746931D02*
X87102999Y-50699312D01*
X87102999Y-50699312D02*
X87198237Y-50604073D01*
X87198237Y-50604073D02*
X87245856Y-50508835D01*
X87245856Y-50508835D02*
X87293475Y-50318359D01*
X87293475Y-50318359D02*
X87293475Y-50175502D01*
X87293475Y-50175502D02*
X87245856Y-49985026D01*
X87245856Y-49985026D02*
X87198237Y-49889788D01*
X87198237Y-49889788D02*
X87102999Y-49794550D01*
X87102999Y-49794550D02*
X86960142Y-49746931D01*
X86960142Y-49746931D02*
X86864904Y-49746931D01*
X86864904Y-49746931D02*
X86722047Y-49794550D01*
X86722047Y-49794550D02*
X86674428Y-49842169D01*
X85483951Y-50746931D02*
X85483951Y-49746931D01*
X85483951Y-49746931D02*
X85150618Y-50461216D01*
X85150618Y-50461216D02*
X84817285Y-49746931D01*
X84817285Y-49746931D02*
X84817285Y-50746931D01*
X84341094Y-50746931D02*
X84341094Y-50080264D01*
X84341094Y-49746931D02*
X84388713Y-49794550D01*
X84388713Y-49794550D02*
X84341094Y-49842169D01*
X84341094Y-49842169D02*
X84293475Y-49794550D01*
X84293475Y-49794550D02*
X84341094Y-49746931D01*
X84341094Y-49746931D02*
X84341094Y-49842169D01*
X83436333Y-50699312D02*
X83531571Y-50746931D01*
X83531571Y-50746931D02*
X83722047Y-50746931D01*
X83722047Y-50746931D02*
X83817285Y-50699312D01*
X83817285Y-50699312D02*
X83864904Y-50651692D01*
X83864904Y-50651692D02*
X83912523Y-50556454D01*
X83912523Y-50556454D02*
X83912523Y-50270740D01*
X83912523Y-50270740D02*
X83864904Y-50175502D01*
X83864904Y-50175502D02*
X83817285Y-50127883D01*
X83817285Y-50127883D02*
X83722047Y-50080264D01*
X83722047Y-50080264D02*
X83531571Y-50080264D01*
X83531571Y-50080264D02*
X83436333Y-50127883D01*
X83007761Y-50746931D02*
X83007761Y-50080264D01*
X83007761Y-50270740D02*
X82960142Y-50175502D01*
X82960142Y-50175502D02*
X82912523Y-50127883D01*
X82912523Y-50127883D02*
X82817285Y-50080264D01*
X82817285Y-50080264D02*
X82722047Y-50080264D01*
X82245856Y-50746931D02*
X82341094Y-50699312D01*
X82341094Y-50699312D02*
X82388713Y-50651692D01*
X82388713Y-50651692D02*
X82436332Y-50556454D01*
X82436332Y-50556454D02*
X82436332Y-50270740D01*
X82436332Y-50270740D02*
X82388713Y-50175502D01*
X82388713Y-50175502D02*
X82341094Y-50127883D01*
X82341094Y-50127883D02*
X82245856Y-50080264D01*
X82245856Y-50080264D02*
X82102999Y-50080264D01*
X82102999Y-50080264D02*
X82007761Y-50127883D01*
X82007761Y-50127883D02*
X81960142Y-50175502D01*
X81960142Y-50175502D02*
X81912523Y-50270740D01*
X81912523Y-50270740D02*
X81912523Y-50556454D01*
X81912523Y-50556454D02*
X81960142Y-50651692D01*
X81960142Y-50651692D02*
X82007761Y-50699312D01*
X82007761Y-50699312D02*
X82102999Y-50746931D01*
X82102999Y-50746931D02*
X82245856Y-50746931D01*
X89317285Y-52309256D02*
X89174428Y-52356875D01*
X89174428Y-52356875D02*
X88936333Y-52356875D01*
X88936333Y-52356875D02*
X88841095Y-52309256D01*
X88841095Y-52309256D02*
X88793476Y-52261636D01*
X88793476Y-52261636D02*
X88745857Y-52166398D01*
X88745857Y-52166398D02*
X88745857Y-52071160D01*
X88745857Y-52071160D02*
X88793476Y-51975922D01*
X88793476Y-51975922D02*
X88841095Y-51928303D01*
X88841095Y-51928303D02*
X88936333Y-51880684D01*
X88936333Y-51880684D02*
X89126809Y-51833065D01*
X89126809Y-51833065D02*
X89222047Y-51785446D01*
X89222047Y-51785446D02*
X89269666Y-51737827D01*
X89269666Y-51737827D02*
X89317285Y-51642589D01*
X89317285Y-51642589D02*
X89317285Y-51547351D01*
X89317285Y-51547351D02*
X89269666Y-51452113D01*
X89269666Y-51452113D02*
X89222047Y-51404494D01*
X89222047Y-51404494D02*
X89126809Y-51356875D01*
X89126809Y-51356875D02*
X88888714Y-51356875D01*
X88888714Y-51356875D02*
X88745857Y-51404494D01*
X87936333Y-52309256D02*
X88031571Y-52356875D01*
X88031571Y-52356875D02*
X88222047Y-52356875D01*
X88222047Y-52356875D02*
X88317285Y-52309256D01*
X88317285Y-52309256D02*
X88364904Y-52214017D01*
X88364904Y-52214017D02*
X88364904Y-51833065D01*
X88364904Y-51833065D02*
X88317285Y-51737827D01*
X88317285Y-51737827D02*
X88222047Y-51690208D01*
X88222047Y-51690208D02*
X88031571Y-51690208D01*
X88031571Y-51690208D02*
X87936333Y-51737827D01*
X87936333Y-51737827D02*
X87888714Y-51833065D01*
X87888714Y-51833065D02*
X87888714Y-51928303D01*
X87888714Y-51928303D02*
X88364904Y-52023541D01*
X87460142Y-52356875D02*
X87460142Y-51690208D01*
X87460142Y-51880684D02*
X87412523Y-51785446D01*
X87412523Y-51785446D02*
X87364904Y-51737827D01*
X87364904Y-51737827D02*
X87269666Y-51690208D01*
X87269666Y-51690208D02*
X87174428Y-51690208D01*
X86841094Y-52356875D02*
X86841094Y-51690208D01*
X86841094Y-51356875D02*
X86888713Y-51404494D01*
X86888713Y-51404494D02*
X86841094Y-51452113D01*
X86841094Y-51452113D02*
X86793475Y-51404494D01*
X86793475Y-51404494D02*
X86841094Y-51356875D01*
X86841094Y-51356875D02*
X86841094Y-51452113D01*
X85936333Y-52356875D02*
X85936333Y-51833065D01*
X85936333Y-51833065D02*
X85983952Y-51737827D01*
X85983952Y-51737827D02*
X86079190Y-51690208D01*
X86079190Y-51690208D02*
X86269666Y-51690208D01*
X86269666Y-51690208D02*
X86364904Y-51737827D01*
X85936333Y-52309256D02*
X86031571Y-52356875D01*
X86031571Y-52356875D02*
X86269666Y-52356875D01*
X86269666Y-52356875D02*
X86364904Y-52309256D01*
X86364904Y-52309256D02*
X86412523Y-52214017D01*
X86412523Y-52214017D02*
X86412523Y-52118779D01*
X86412523Y-52118779D02*
X86364904Y-52023541D01*
X86364904Y-52023541D02*
X86269666Y-51975922D01*
X86269666Y-51975922D02*
X86031571Y-51975922D01*
X86031571Y-51975922D02*
X85936333Y-51928303D01*
X85317285Y-52356875D02*
X85412523Y-52309256D01*
X85412523Y-52309256D02*
X85460142Y-52214017D01*
X85460142Y-52214017D02*
X85460142Y-51356875D01*
X84174427Y-51356875D02*
X84174427Y-52166398D01*
X84174427Y-52166398D02*
X84126808Y-52261636D01*
X84126808Y-52261636D02*
X84079189Y-52309256D01*
X84079189Y-52309256D02*
X83983951Y-52356875D01*
X83983951Y-52356875D02*
X83793475Y-52356875D01*
X83793475Y-52356875D02*
X83698237Y-52309256D01*
X83698237Y-52309256D02*
X83650618Y-52261636D01*
X83650618Y-52261636D02*
X83602999Y-52166398D01*
X83602999Y-52166398D02*
X83602999Y-51356875D01*
X82650618Y-52356875D02*
X83126808Y-52356875D01*
X83126808Y-52356875D02*
X83126808Y-51356875D01*
X82364903Y-52071160D02*
X81888713Y-52071160D01*
X82460141Y-52356875D02*
X82126808Y-51356875D01*
X82126808Y-51356875D02*
X81793475Y-52356875D01*
X89579191Y-53966819D02*
X89912524Y-53490628D01*
X90150619Y-53966819D02*
X90150619Y-52966819D01*
X90150619Y-52966819D02*
X89769667Y-52966819D01*
X89769667Y-52966819D02*
X89674429Y-53014438D01*
X89674429Y-53014438D02*
X89626810Y-53062057D01*
X89626810Y-53062057D02*
X89579191Y-53157295D01*
X89579191Y-53157295D02*
X89579191Y-53300152D01*
X89579191Y-53300152D02*
X89626810Y-53395390D01*
X89626810Y-53395390D02*
X89674429Y-53443009D01*
X89674429Y-53443009D02*
X89769667Y-53490628D01*
X89769667Y-53490628D02*
X90150619Y-53490628D01*
X88769667Y-53919200D02*
X88864905Y-53966819D01*
X88864905Y-53966819D02*
X89055381Y-53966819D01*
X89055381Y-53966819D02*
X89150619Y-53919200D01*
X89150619Y-53919200D02*
X89198238Y-53823961D01*
X89198238Y-53823961D02*
X89198238Y-53443009D01*
X89198238Y-53443009D02*
X89150619Y-53347771D01*
X89150619Y-53347771D02*
X89055381Y-53300152D01*
X89055381Y-53300152D02*
X88864905Y-53300152D01*
X88864905Y-53300152D02*
X88769667Y-53347771D01*
X88769667Y-53347771D02*
X88722048Y-53443009D01*
X88722048Y-53443009D02*
X88722048Y-53538247D01*
X88722048Y-53538247D02*
X89198238Y-53633485D01*
X88293476Y-53300152D02*
X88293476Y-54300152D01*
X88293476Y-53347771D02*
X88198238Y-53300152D01*
X88198238Y-53300152D02*
X88007762Y-53300152D01*
X88007762Y-53300152D02*
X87912524Y-53347771D01*
X87912524Y-53347771D02*
X87864905Y-53395390D01*
X87864905Y-53395390D02*
X87817286Y-53490628D01*
X87817286Y-53490628D02*
X87817286Y-53776342D01*
X87817286Y-53776342D02*
X87864905Y-53871580D01*
X87864905Y-53871580D02*
X87912524Y-53919200D01*
X87912524Y-53919200D02*
X88007762Y-53966819D01*
X88007762Y-53966819D02*
X88198238Y-53966819D01*
X88198238Y-53966819D02*
X88293476Y-53919200D01*
X87245857Y-53966819D02*
X87341095Y-53919200D01*
X87341095Y-53919200D02*
X87388714Y-53823961D01*
X87388714Y-53823961D02*
X87388714Y-52966819D01*
X86436333Y-53966819D02*
X86436333Y-53443009D01*
X86436333Y-53443009D02*
X86483952Y-53347771D01*
X86483952Y-53347771D02*
X86579190Y-53300152D01*
X86579190Y-53300152D02*
X86769666Y-53300152D01*
X86769666Y-53300152D02*
X86864904Y-53347771D01*
X86436333Y-53919200D02*
X86531571Y-53966819D01*
X86531571Y-53966819D02*
X86769666Y-53966819D01*
X86769666Y-53966819D02*
X86864904Y-53919200D01*
X86864904Y-53919200D02*
X86912523Y-53823961D01*
X86912523Y-53823961D02*
X86912523Y-53728723D01*
X86912523Y-53728723D02*
X86864904Y-53633485D01*
X86864904Y-53633485D02*
X86769666Y-53585866D01*
X86769666Y-53585866D02*
X86531571Y-53585866D01*
X86531571Y-53585866D02*
X86436333Y-53538247D01*
X85531571Y-53919200D02*
X85626809Y-53966819D01*
X85626809Y-53966819D02*
X85817285Y-53966819D01*
X85817285Y-53966819D02*
X85912523Y-53919200D01*
X85912523Y-53919200D02*
X85960142Y-53871580D01*
X85960142Y-53871580D02*
X86007761Y-53776342D01*
X86007761Y-53776342D02*
X86007761Y-53490628D01*
X86007761Y-53490628D02*
X85960142Y-53395390D01*
X85960142Y-53395390D02*
X85912523Y-53347771D01*
X85912523Y-53347771D02*
X85817285Y-53300152D01*
X85817285Y-53300152D02*
X85626809Y-53300152D01*
X85626809Y-53300152D02*
X85531571Y-53347771D01*
X84722047Y-53919200D02*
X84817285Y-53966819D01*
X84817285Y-53966819D02*
X85007761Y-53966819D01*
X85007761Y-53966819D02*
X85102999Y-53919200D01*
X85102999Y-53919200D02*
X85150618Y-53823961D01*
X85150618Y-53823961D02*
X85150618Y-53443009D01*
X85150618Y-53443009D02*
X85102999Y-53347771D01*
X85102999Y-53347771D02*
X85007761Y-53300152D01*
X85007761Y-53300152D02*
X84817285Y-53300152D01*
X84817285Y-53300152D02*
X84722047Y-53347771D01*
X84722047Y-53347771D02*
X84674428Y-53443009D01*
X84674428Y-53443009D02*
X84674428Y-53538247D01*
X84674428Y-53538247D02*
X85150618Y-53633485D01*
X84245856Y-53966819D02*
X84245856Y-53300152D01*
X84245856Y-53395390D02*
X84198237Y-53347771D01*
X84198237Y-53347771D02*
X84102999Y-53300152D01*
X84102999Y-53300152D02*
X83960142Y-53300152D01*
X83960142Y-53300152D02*
X83864904Y-53347771D01*
X83864904Y-53347771D02*
X83817285Y-53443009D01*
X83817285Y-53443009D02*
X83817285Y-53966819D01*
X83817285Y-53443009D02*
X83769666Y-53347771D01*
X83769666Y-53347771D02*
X83674428Y-53300152D01*
X83674428Y-53300152D02*
X83531571Y-53300152D01*
X83531571Y-53300152D02*
X83436332Y-53347771D01*
X83436332Y-53347771D02*
X83388713Y-53443009D01*
X83388713Y-53443009D02*
X83388713Y-53966819D01*
X82531571Y-53919200D02*
X82626809Y-53966819D01*
X82626809Y-53966819D02*
X82817285Y-53966819D01*
X82817285Y-53966819D02*
X82912523Y-53919200D01*
X82912523Y-53919200D02*
X82960142Y-53823961D01*
X82960142Y-53823961D02*
X82960142Y-53443009D01*
X82960142Y-53443009D02*
X82912523Y-53347771D01*
X82912523Y-53347771D02*
X82817285Y-53300152D01*
X82817285Y-53300152D02*
X82626809Y-53300152D01*
X82626809Y-53300152D02*
X82531571Y-53347771D01*
X82531571Y-53347771D02*
X82483952Y-53443009D01*
X82483952Y-53443009D02*
X82483952Y-53538247D01*
X82483952Y-53538247D02*
X82960142Y-53633485D01*
X82055380Y-53300152D02*
X82055380Y-53966819D01*
X82055380Y-53395390D02*
X82007761Y-53347771D01*
X82007761Y-53347771D02*
X81912523Y-53300152D01*
X81912523Y-53300152D02*
X81769666Y-53300152D01*
X81769666Y-53300152D02*
X81674428Y-53347771D01*
X81674428Y-53347771D02*
X81626809Y-53443009D01*
X81626809Y-53443009D02*
X81626809Y-53966819D01*
X81293475Y-53300152D02*
X80912523Y-53300152D01*
X81150618Y-52966819D02*
X81150618Y-53823961D01*
X81150618Y-53823961D02*
X81102999Y-53919200D01*
X81102999Y-53919200D02*
X81007761Y-53966819D01*
X81007761Y-53966819D02*
X80912523Y-53966819D01*
D11*
X88091333Y-64256633D02*
X88091333Y-64756633D01*
X88091333Y-64756633D02*
X88124666Y-64856633D01*
X88124666Y-64856633D02*
X88191333Y-64923300D01*
X88191333Y-64923300D02*
X88291333Y-64956633D01*
X88291333Y-64956633D02*
X88358000Y-64956633D01*
X87758000Y-64956633D02*
X87758000Y-64256633D01*
X87758000Y-64256633D02*
X87491333Y-64256633D01*
X87491333Y-64256633D02*
X87424667Y-64289966D01*
X87424667Y-64289966D02*
X87391333Y-64323300D01*
X87391333Y-64323300D02*
X87358000Y-64389966D01*
X87358000Y-64389966D02*
X87358000Y-64489966D01*
X87358000Y-64489966D02*
X87391333Y-64556633D01*
X87391333Y-64556633D02*
X87424667Y-64589966D01*
X87424667Y-64589966D02*
X87491333Y-64623300D01*
X87491333Y-64623300D02*
X87758000Y-64623300D01*
X86691333Y-64956633D02*
X87091333Y-64956633D01*
X86891333Y-64956633D02*
X86891333Y-64256633D01*
X86891333Y-64256633D02*
X86958000Y-64356633D01*
X86958000Y-64356633D02*
X87024667Y-64423300D01*
X87024667Y-64423300D02*
X87091333Y-64456633D01*
D12*
%TO.C,JP1*%
X86368000Y-64938000D02*
X86368000Y-64338000D01*
X85668000Y-63638000D02*
X84268000Y-63638000D01*
X84268000Y-65638000D02*
X85668000Y-65638000D01*
X83568000Y-64338000D02*
X83568000Y-64938000D01*
X85668000Y-63638000D02*
G75*
G02*
X86368000Y-64338000I1J-699999D01*
G01*
X86368000Y-64938000D02*
G75*
G02*
X85668000Y-65638000I-699999J-1D01*
G01*
X83568000Y-64338000D02*
G75*
G02*
X84268000Y-63638000I700000J0D01*
G01*
X84268000Y-65638000D02*
G75*
G02*
X83568000Y-64938000I0J700000D01*
G01*
%TD*%
M02*
