%TF.GenerationSoftware,KiCad,Pcbnew,9.0.1*%
%TF.CreationDate,2025-05-01T11:14:46+01:00*%
%TF.ProjectId,SerialULA,53657269-616c-4554-9c41-2e6b69636164,01*%
%TF.SameCoordinates,Original*%
%TF.FileFunction,Soldermask,Bot*%
%TF.FilePolarity,Negative*%
%FSLAX46Y46*%
G04 Gerber Fmt 4.6, Leading zero omitted, Abs format (unit mm)*
G04 Created by KiCad (PCBNEW 9.0.1) date 2025-05-01 11:14:46*
%MOMM*%
%LPD*%
G01*
G04 APERTURE LIST*
G04 Aperture macros list*
%AMRoundRect*
0 Rectangle with rounded corners*
0 $1 Rounding radius*
0 $2 $3 $4 $5 $6 $7 $8 $9 X,Y pos of 4 corners*
0 Add a 4 corners polygon primitive as box body*
4,1,4,$2,$3,$4,$5,$6,$7,$8,$9,$2,$3,0*
0 Add four circle primitives for the rounded corners*
1,1,$1+$1,$2,$3*
1,1,$1+$1,$4,$5*
1,1,$1+$1,$6,$7*
1,1,$1+$1,$8,$9*
0 Add four rect primitives between the rounded corners*
20,1,$1+$1,$2,$3,$4,$5,0*
20,1,$1+$1,$4,$5,$6,$7,0*
20,1,$1+$1,$6,$7,$8,$9,0*
20,1,$1+$1,$8,$9,$2,$3,0*%
%AMFreePoly0*
4,1,23,0.500000,-0.750000,0.000000,-0.750000,0.000000,-0.745722,-0.065263,-0.745722,-0.191342,-0.711940,-0.304381,-0.646677,-0.396677,-0.554381,-0.461940,-0.441342,-0.495722,-0.315263,-0.495722,-0.250000,-0.500000,-0.250000,-0.500000,0.250000,-0.495722,0.250000,-0.495722,0.315263,-0.461940,0.441342,-0.396677,0.554381,-0.304381,0.646677,-0.191342,0.711940,-0.065263,0.745722,0.000000,0.745722,
0.000000,0.750000,0.500000,0.750000,0.500000,-0.750000,0.500000,-0.750000,$1*%
%AMFreePoly1*
4,1,23,0.000000,0.745722,0.065263,0.745722,0.191342,0.711940,0.304381,0.646677,0.396677,0.554381,0.461940,0.441342,0.495722,0.315263,0.495722,0.250000,0.500000,0.250000,0.500000,-0.250000,0.495722,-0.250000,0.495722,-0.315263,0.461940,-0.441342,0.396677,-0.554381,0.304381,-0.646677,0.191342,-0.711940,0.065263,-0.745722,0.000000,-0.745722,0.000000,-0.750000,-0.500000,-0.750000,
-0.500000,0.750000,0.000000,0.750000,0.000000,0.745722,0.000000,0.745722,$1*%
G04 Aperture macros list end*
%ADD10FreePoly0,180.000000*%
%ADD11FreePoly1,180.000000*%
%ADD12R,1.700000X1.700000*%
%ADD13C,1.700000*%
%ADD14RoundRect,0.250000X-0.550000X-0.550000X0.550000X-0.550000X0.550000X0.550000X-0.550000X0.550000X0*%
%ADD15C,1.600000*%
G04 APERTURE END LIST*
%TO.C,JP1*%
G36*
X85118000Y-63888000D02*
G01*
X84818000Y-63888000D01*
X84818000Y-65388000D01*
X85118000Y-65388000D01*
X85118000Y-63888000D01*
G37*
%TD*%
D10*
%TO.C,JP1*%
X85618000Y-64638000D03*
D11*
X84318000Y-64638000D03*
%TD*%
D12*
%TO.C,J1*%
X80523000Y-71623000D03*
D13*
X80523000Y-69083000D03*
X83063000Y-71623000D03*
X83063000Y-69083000D03*
X85603000Y-71623000D03*
X85603000Y-69083000D03*
X88143000Y-71623000D03*
X88143000Y-69083000D03*
X90683000Y-71623000D03*
X90683000Y-69083000D03*
%TD*%
D14*
%TO.C,U3*%
X77983000Y-39873000D03*
D15*
X77983000Y-42413000D03*
X77983000Y-44953000D03*
X77983000Y-47493000D03*
X77983000Y-50033000D03*
X77983000Y-52573000D03*
X77983000Y-55113000D03*
X77983000Y-57653000D03*
X77983000Y-60193000D03*
X77983000Y-62733000D03*
X77983000Y-65273000D03*
X77983000Y-67813000D03*
X77983000Y-70353000D03*
X77983000Y-72893000D03*
X93223000Y-72893000D03*
X93223000Y-70353000D03*
X93223000Y-67813000D03*
X93223000Y-65273000D03*
X93223000Y-62733000D03*
X93223000Y-60193000D03*
X93223000Y-57653000D03*
X93223000Y-55113000D03*
X93223000Y-52573000D03*
X93223000Y-50033000D03*
X93223000Y-47493000D03*
X93223000Y-44953000D03*
X93223000Y-42413000D03*
X93223000Y-39873000D03*
%TD*%
M02*
