%TF.GenerationSoftware,KiCad,Pcbnew,9.0.1*%
%TF.CreationDate,2025-06-21T09:46:43+01:00*%
%TF.ProjectId,SerialULA,53657269-616c-4554-9c41-2e6b69636164,02*%
%TF.SameCoordinates,Original*%
%TF.FileFunction,Paste,Top*%
%TF.FilePolarity,Positive*%
%FSLAX46Y46*%
G04 Gerber Fmt 4.6, Leading zero omitted, Abs format (unit mm)*
G04 Created by KiCad (PCBNEW 9.0.1) date 2025-06-21 09:46:43*
%MOMM*%
%LPD*%
G01*
G04 APERTURE LIST*
G04 Aperture macros list*
%AMRoundRect*
0 Rectangle with rounded corners*
0 $1 Rounding radius*
0 $2 $3 $4 $5 $6 $7 $8 $9 X,Y pos of 4 corners*
0 Add a 4 corners polygon primitive as box body*
4,1,4,$2,$3,$4,$5,$6,$7,$8,$9,$2,$3,0*
0 Add four circle primitives for the rounded corners*
1,1,$1+$1,$2,$3*
1,1,$1+$1,$4,$5*
1,1,$1+$1,$6,$7*
1,1,$1+$1,$8,$9*
0 Add four rect primitives between the rounded corners*
20,1,$1+$1,$2,$3,$4,$5,0*
20,1,$1+$1,$4,$5,$6,$7,0*
20,1,$1+$1,$6,$7,$8,$9,0*
20,1,$1+$1,$8,$9,$2,$3,0*%
G04 Aperture macros list end*
%ADD10RoundRect,0.135000X0.135000X0.185000X-0.135000X0.185000X-0.135000X-0.185000X0.135000X-0.185000X0*%
%ADD11RoundRect,0.140000X0.140000X0.170000X-0.140000X0.170000X-0.140000X-0.170000X0.140000X-0.170000X0*%
%ADD12RoundRect,0.135000X-0.185000X0.135000X-0.185000X-0.135000X0.185000X-0.135000X0.185000X0.135000X0*%
%ADD13RoundRect,0.140000X-0.140000X-0.170000X0.140000X-0.170000X0.140000X0.170000X-0.140000X0.170000X0*%
%ADD14RoundRect,0.137500X-0.600000X-0.137500X0.600000X-0.137500X0.600000X0.137500X-0.600000X0.137500X0*%
%ADD15RoundRect,0.137500X-0.137500X-0.600000X0.137500X-0.600000X0.137500X0.600000X-0.137500X0.600000X0*%
%ADD16RoundRect,0.135000X-0.135000X-0.185000X0.135000X-0.185000X0.135000X0.185000X-0.135000X0.185000X0*%
%ADD17RoundRect,0.375000X0.625000X0.375000X-0.625000X0.375000X-0.625000X-0.375000X0.625000X-0.375000X0*%
%ADD18RoundRect,0.500000X0.500000X1.400000X-0.500000X1.400000X-0.500000X-1.400000X0.500000X-1.400000X0*%
%ADD19RoundRect,0.250000X-0.445000X0.457500X-0.445000X-0.457500X0.445000X-0.457500X0.445000X0.457500X0*%
%ADD20RoundRect,0.250000X0.445000X-0.457500X0.445000X0.457500X-0.445000X0.457500X-0.445000X-0.457500X0*%
%ADD21RoundRect,0.150000X0.150000X-0.512500X0.150000X0.512500X-0.150000X0.512500X-0.150000X-0.512500X0*%
G04 APERTURE END LIST*
D10*
%TO.C,R1*%
X83823000Y-47493000D03*
X84843000Y-47493000D03*
%TD*%
%TO.C,R4*%
X81791000Y-47493000D03*
X82811000Y-47493000D03*
%TD*%
D11*
%TO.C,C4*%
X83726000Y-40508000D03*
X84686000Y-40508000D03*
%TD*%
D12*
%TO.C,R7*%
X84739400Y-63620000D03*
X84739400Y-64640000D03*
%TD*%
D13*
%TO.C,C1*%
X87510600Y-65069800D03*
X88470600Y-65069800D03*
%TD*%
D12*
%TO.C,R2*%
X87381000Y-48124000D03*
X87381000Y-49144000D03*
%TD*%
%TO.C,R3*%
X86238000Y-48126000D03*
X86238000Y-49146000D03*
%TD*%
D10*
%TO.C,R5*%
X83573000Y-65019000D03*
X82553000Y-65019000D03*
%TD*%
D14*
%TO.C,U1*%
X79940500Y-52383000D03*
X79940500Y-53183000D03*
X79940500Y-53983000D03*
X79940500Y-54783000D03*
X79940500Y-55583000D03*
X79940500Y-56383000D03*
X79940500Y-57183000D03*
X79940500Y-57983000D03*
X79940500Y-58783000D03*
X79940500Y-59583000D03*
X79940500Y-60383000D03*
D15*
X81603000Y-62045500D03*
X82403000Y-62045500D03*
X83203000Y-62045500D03*
X84003000Y-62045500D03*
X84803000Y-62045500D03*
X85603000Y-62045500D03*
X86403000Y-62045500D03*
X87203000Y-62045500D03*
X88003000Y-62045500D03*
X88803000Y-62045500D03*
X89603000Y-62045500D03*
D14*
X91265500Y-60383000D03*
X91265500Y-59583000D03*
X91265500Y-58783000D03*
X91265500Y-57983000D03*
X91265500Y-57183000D03*
X91265500Y-56383000D03*
X91265500Y-55583000D03*
X91265500Y-54783000D03*
X91265500Y-53983000D03*
X91265500Y-53183000D03*
X91265500Y-52383000D03*
D15*
X89603000Y-50720500D03*
X88803000Y-50720500D03*
X88003000Y-50720500D03*
X87203000Y-50720500D03*
X86403000Y-50720500D03*
X85603000Y-50720500D03*
X84803000Y-50720500D03*
X84003000Y-50720500D03*
X83203000Y-50720500D03*
X82403000Y-50720500D03*
X81603000Y-50720500D03*
%TD*%
D16*
%TO.C,R6*%
X80521000Y-65019000D03*
X81541000Y-65019000D03*
%TD*%
D11*
%TO.C,C5*%
X84686000Y-45969000D03*
X83726000Y-45969000D03*
%TD*%
D17*
%TO.C,U2*%
X87356000Y-45602000D03*
X87356000Y-43302000D03*
D18*
X81056000Y-43302000D03*
D17*
X87356000Y-41002000D03*
%TD*%
D13*
%TO.C,C2*%
X90683000Y-62225000D03*
X91643000Y-62225000D03*
%TD*%
D19*
%TO.C,C2.1*%
X90429000Y-40552500D03*
X90429000Y-43257500D03*
%TD*%
D20*
%TO.C,C2.2*%
X90429000Y-48235900D03*
X90429000Y-45530900D03*
%TD*%
D12*
%TO.C,R8*%
X86517400Y-63620000D03*
X86517400Y-64640000D03*
%TD*%
D21*
%TO.C,U3*%
X83256000Y-44439500D03*
X85156000Y-44439500D03*
X84206000Y-42164500D03*
%TD*%
D13*
%TO.C,C3*%
X90711000Y-50541000D03*
X91671000Y-50541000D03*
%TD*%
M02*
