M48
; DRILL file {KiCad 9.0.1} date 2025-05-01T11:14:43+0100
; FORMAT={-:-/ absolute / metric / decimal}
; #@! TF.CreationDate,2025-05-01T11:14:43+01:00
; #@! TF.GenerationSoftware,Kicad,Pcbnew,9.0.1
; #@! TF.FileFunction,MixedPlating,1,2
FMAT,2
METRIC
; #@! TA.AperFunction,Plated,PTH,ViaDrill
T1C0.400
; #@! TA.AperFunction,Plated,PTH,ComponentDrill
T2C0.800
; #@! TA.AperFunction,Plated,PTH,ComponentDrill
T3C1.000
%
G90
G05
T1
X80.015Y-61.336
X80.521Y-62.968
X80.521Y-65.908
X80.633Y-50.507
X80.759Y-51.539
X81.285Y-54.783
X81.285Y-60.447
X81.539Y-67.94
X81.601Y-59.498
X81.827Y-58.524
X83.511Y-66.637
X84.853Y-60.522
X85.857Y-60.574
X88.433Y-42.311
X88.433Y-44.541
X88.778Y-39.619
X89.54Y-49.271
X89.653Y-58.833
X90.073Y-59.74
X90.688Y-51.508
X91.693Y-61.258
X91.699Y-41.905
X91.724Y-47.745
T2
X77.983Y-39.873
X77.983Y-42.413
X77.983Y-44.953
X77.983Y-47.493
X77.983Y-50.033
X77.983Y-52.573
X77.983Y-55.113
X77.983Y-57.653
X77.983Y-60.193
X77.983Y-62.733
X77.983Y-65.273
X77.983Y-67.813
X77.983Y-70.353
X77.983Y-72.893
X93.223Y-39.873
X93.223Y-42.413
X93.223Y-44.953
X93.223Y-47.493
X93.223Y-50.033
X93.223Y-52.573
X93.223Y-55.113
X93.223Y-57.653
X93.223Y-60.193
X93.223Y-62.733
X93.223Y-65.273
X93.223Y-67.813
X93.223Y-70.353
X93.223Y-72.893
T3
X80.523Y-69.083
X80.523Y-71.623
X83.063Y-69.083
X83.063Y-71.623
X85.603Y-69.083
X85.603Y-71.623
X88.143Y-69.083
X88.143Y-71.623
X90.683Y-69.083
X90.683Y-71.623
M30
