%TF.GenerationSoftware,KiCad,Pcbnew,9.0.1*%
%TF.CreationDate,2025-05-01T11:14:46+01:00*%
%TF.ProjectId,SerialULA,53657269-616c-4554-9c41-2e6b69636164,01*%
%TF.SameCoordinates,Original*%
%TF.FileFunction,Copper,L1,Top*%
%TF.FilePolarity,Positive*%
%FSLAX46Y46*%
G04 Gerber Fmt 4.6, Leading zero omitted, Abs format (unit mm)*
G04 Created by KiCad (PCBNEW 9.0.1) date 2025-05-01 11:14:46*
%MOMM*%
%LPD*%
G01*
G04 APERTURE LIST*
G04 Aperture macros list*
%AMRoundRect*
0 Rectangle with rounded corners*
0 $1 Rounding radius*
0 $2 $3 $4 $5 $6 $7 $8 $9 X,Y pos of 4 corners*
0 Add a 4 corners polygon primitive as box body*
4,1,4,$2,$3,$4,$5,$6,$7,$8,$9,$2,$3,0*
0 Add four circle primitives for the rounded corners*
1,1,$1+$1,$2,$3*
1,1,$1+$1,$4,$5*
1,1,$1+$1,$6,$7*
1,1,$1+$1,$8,$9*
0 Add four rect primitives between the rounded corners*
20,1,$1+$1,$2,$3,$4,$5,0*
20,1,$1+$1,$4,$5,$6,$7,0*
20,1,$1+$1,$6,$7,$8,$9,0*
20,1,$1+$1,$8,$9,$2,$3,0*%
G04 Aperture macros list end*
%TA.AperFunction,SMDPad,CuDef*%
%ADD10RoundRect,0.135000X-0.185000X0.135000X-0.185000X-0.135000X0.185000X-0.135000X0.185000X0.135000X0*%
%TD*%
%TA.AperFunction,ComponentPad*%
%ADD11R,1.700000X1.700000*%
%TD*%
%TA.AperFunction,ComponentPad*%
%ADD12C,1.700000*%
%TD*%
%TA.AperFunction,SMDPad,CuDef*%
%ADD13RoundRect,0.135000X0.135000X0.185000X-0.135000X0.185000X-0.135000X-0.185000X0.135000X-0.185000X0*%
%TD*%
%TA.AperFunction,SMDPad,CuDef*%
%ADD14RoundRect,0.137500X-0.600000X-0.137500X0.600000X-0.137500X0.600000X0.137500X-0.600000X0.137500X0*%
%TD*%
%TA.AperFunction,SMDPad,CuDef*%
%ADD15RoundRect,0.137500X-0.137500X-0.600000X0.137500X-0.600000X0.137500X0.600000X-0.137500X0.600000X0*%
%TD*%
%TA.AperFunction,SMDPad,CuDef*%
%ADD16RoundRect,0.135000X-0.135000X-0.185000X0.135000X-0.185000X0.135000X0.185000X-0.135000X0.185000X0*%
%TD*%
%TA.AperFunction,SMDPad,CuDef*%
%ADD17RoundRect,0.375000X0.625000X0.375000X-0.625000X0.375000X-0.625000X-0.375000X0.625000X-0.375000X0*%
%TD*%
%TA.AperFunction,SMDPad,CuDef*%
%ADD18RoundRect,0.500000X0.500000X1.400000X-0.500000X1.400000X-0.500000X-1.400000X0.500000X-1.400000X0*%
%TD*%
%TA.AperFunction,SMDPad,CuDef*%
%ADD19RoundRect,0.140000X-0.140000X-0.170000X0.140000X-0.170000X0.140000X0.170000X-0.140000X0.170000X0*%
%TD*%
%TA.AperFunction,ComponentPad*%
%ADD20RoundRect,0.250000X-0.550000X-0.550000X0.550000X-0.550000X0.550000X0.550000X-0.550000X0.550000X0*%
%TD*%
%TA.AperFunction,ComponentPad*%
%ADD21C,1.600000*%
%TD*%
%TA.AperFunction,SMDPad,CuDef*%
%ADD22RoundRect,0.250000X-0.445000X0.457500X-0.445000X-0.457500X0.445000X-0.457500X0.445000X0.457500X0*%
%TD*%
%TA.AperFunction,SMDPad,CuDef*%
%ADD23RoundRect,0.140000X0.170000X-0.140000X0.170000X0.140000X-0.170000X0.140000X-0.170000X-0.140000X0*%
%TD*%
%TA.AperFunction,SMDPad,CuDef*%
%ADD24RoundRect,0.250000X0.445000X-0.457500X0.445000X0.457500X-0.445000X0.457500X-0.445000X-0.457500X0*%
%TD*%
%TA.AperFunction,ViaPad*%
%ADD25C,0.800000*%
%TD*%
%TA.AperFunction,Conductor*%
%ADD26C,0.250000*%
%TD*%
%TA.AperFunction,Conductor*%
%ADD27C,0.500000*%
%TD*%
%TA.AperFunction,Conductor*%
%ADD28C,0.400000*%
%TD*%
G04 APERTURE END LIST*
D10*
%TO.P,R7,1*%
%TO.N,Net-(JP1-B)*%
X84803000Y-63620000D03*
%TO.P,R7,2*%
%TO.N,+3.3V*%
X84803000Y-64640000D03*
%TD*%
%TO.P,R2,1*%
%TO.N,/CasOut*%
X87381000Y-48124000D03*
%TO.P,R2,2*%
%TO.N,/CasOut1*%
X87381000Y-49144000D03*
%TD*%
%TO.P,R3,1*%
%TO.N,/CasOut*%
X86238000Y-48126000D03*
%TO.P,R3,2*%
%TO.N,/CasOut0*%
X86238000Y-49146000D03*
%TD*%
D11*
%TO.P,J1,1,Pin_1*%
%TO.N,/TCK*%
X80523000Y-71623000D03*
D12*
%TO.P,J1,2,Pin_2*%
%TO.N,GND*%
X80523000Y-69083000D03*
%TO.P,J1,3,Pin_3*%
%TO.N,/TDO*%
X83063000Y-71623000D03*
%TO.P,J1,4,Pin_4*%
%TO.N,+3.3V*%
X83063000Y-69083000D03*
%TO.P,J1,5,Pin_5*%
%TO.N,/TMS*%
X85603000Y-71623000D03*
%TO.P,J1,6,Pin_6*%
%TO.N,unconnected-(J1-Pin_6-Pad6)*%
X85603000Y-69083000D03*
%TO.P,J1,7,Pin_7*%
%TO.N,unconnected-(J1-Pin_7-Pad7)*%
X88143000Y-71623000D03*
%TO.P,J1,8,Pin_8*%
%TO.N,unconnected-(J1-Pin_8-Pad8)*%
X88143000Y-69083000D03*
%TO.P,J1,9,Pin_9*%
%TO.N,/TDI*%
X90683000Y-71623000D03*
%TO.P,J1,10,Pin_10*%
%TO.N,GND*%
X90683000Y-69083000D03*
%TD*%
D13*
%TO.P,R5,1*%
%TO.N,+3.3V*%
X83573000Y-65019000D03*
%TO.P,R5,2*%
%TO.N,/CasIn*%
X82553000Y-65019000D03*
%TD*%
D14*
%TO.P,U1,1,I/O/GCK3*%
%TO.N,/D4*%
X79940500Y-52383000D03*
%TO.P,U1,2,P2*%
%TO.N,/D5*%
X79940500Y-53183000D03*
%TO.P,U1,3,P3*%
%TO.N,/D6*%
X79940500Y-53983000D03*
%TO.P,U1,4,GND*%
%TO.N,GND*%
X79940500Y-54783000D03*
%TO.P,U1,5,P5*%
%TO.N,unconnected-(U1-P5-Pad5)*%
X79940500Y-55583000D03*
%TO.P,U1,6,P6*%
%TO.N,unconnected-(U1-P6-Pad6)*%
X79940500Y-56383000D03*
%TO.P,U1,7,P7*%
%TO.N,/D7*%
X79940500Y-57183000D03*
%TO.P,U1,8,P8*%
%TO.N,/~{CS}*%
X79940500Y-57983000D03*
%TO.P,U1,9,TDI*%
%TO.N,/TDI*%
X79940500Y-58783000D03*
%TO.P,U1,10,TMS*%
%TO.N,/TMS*%
X79940500Y-59583000D03*
%TO.P,U1,11,TCK*%
%TO.N,/TCK*%
X79940500Y-60383000D03*
D15*
%TO.P,U1,12,P12*%
%TO.N,/CasMotor*%
X81603000Y-62045500D03*
%TO.P,U1,13,P13*%
%TO.N,/CasIn*%
X82403000Y-62045500D03*
%TO.P,U1,14,P14*%
%TO.N,/DCD*%
X83203000Y-62045500D03*
%TO.P,U1,15,VCC*%
%TO.N,+3.3V*%
X84003000Y-62045500D03*
%TO.P,U1,16,P16*%
%TO.N,Net-(JP1-B)*%
X84803000Y-62045500D03*
%TO.P,U1,17,GND*%
%TO.N,GND*%
X85603000Y-62045500D03*
%TO.P,U1,18,P18*%
%TO.N,unconnected-(U1-P18-Pad18)*%
X86403000Y-62045500D03*
%TO.P,U1,19,P19*%
%TO.N,/Din*%
X87203000Y-62045500D03*
%TO.P,U1,20,P20*%
%TO.N,/RxD*%
X88003000Y-62045500D03*
%TO.P,U1,21,P21*%
%TO.N,/RxC*%
X88803000Y-62045500D03*
%TO.P,U1,22,P22*%
%TO.N,/CTSO*%
X89603000Y-62045500D03*
D14*
%TO.P,U1,23,P23*%
%TO.N,/CTSI*%
X91265500Y-60383000D03*
%TO.P,U1,24,TDO*%
%TO.N,/TDO*%
X91265500Y-59583000D03*
%TO.P,U1,25,GND*%
%TO.N,GND*%
X91265500Y-58783000D03*
%TO.P,U1,26,VCCIO*%
%TO.N,+3.3V*%
X91265500Y-57983000D03*
%TO.P,U1,27,P27*%
%TO.N,/Dout*%
X91265500Y-57183000D03*
%TO.P,U1,28,P28*%
%TO.N,/TxD*%
X91265500Y-56383000D03*
%TO.P,U1,29,P29*%
%TO.N,unconnected-(U1-P29-Pad29)*%
X91265500Y-55583000D03*
%TO.P,U1,30,P30*%
%TO.N,unconnected-(U1-P30-Pad30)*%
X91265500Y-54783000D03*
%TO.P,U1,31,P31*%
%TO.N,unconnected-(U1-P31-Pad31)*%
X91265500Y-53983000D03*
%TO.P,U1,32,P32*%
%TO.N,/RTSO*%
X91265500Y-53183000D03*
%TO.P,U1,33,I/O/GSR*%
%TO.N,/RTSI*%
X91265500Y-52383000D03*
D15*
%TO.P,U1,34,I/O/GTS2*%
%TO.N,unconnected-(U1-I{slash}O{slash}GTS2-Pad34)*%
X89603000Y-50720500D03*
%TO.P,U1,35,VCC*%
%TO.N,+3.3V*%
X88803000Y-50720500D03*
%TO.P,U1,36,I/O/GTS1*%
%TO.N,/TxC*%
X88003000Y-50720500D03*
%TO.P,U1,37,P37*%
%TO.N,/CasOut1*%
X87203000Y-50720500D03*
%TO.P,U1,38,P38*%
%TO.N,/CasOut0*%
X86403000Y-50720500D03*
%TO.P,U1,39,P39*%
%TO.N,/D0*%
X85603000Y-50720500D03*
%TO.P,U1,40,P40*%
%TO.N,/D1*%
X84803000Y-50720500D03*
%TO.P,U1,41,P41*%
%TO.N,/D2*%
X84003000Y-50720500D03*
%TO.P,U1,42,P42*%
%TO.N,/D3*%
X83203000Y-50720500D03*
%TO.P,U1,43,I/O/GCK1*%
%TO.N,/E*%
X82403000Y-50720500D03*
%TO.P,U1,44,I/O/GCK2*%
%TO.N,/Clk*%
X81603000Y-50720500D03*
%TD*%
D16*
%TO.P,R6,1*%
%TO.N,/CasIn*%
X80521000Y-65019000D03*
%TO.P,R6,2*%
%TO.N,GND*%
X81541000Y-65019000D03*
%TD*%
D17*
%TO.P,U2,1,GND*%
%TO.N,GND*%
X87356000Y-45602000D03*
%TO.P,U2,2,VO*%
%TO.N,+3.3V*%
X87356000Y-43302000D03*
D18*
X81056000Y-43302000D03*
D17*
%TO.P,U2,3,VI*%
%TO.N,+5V*%
X87356000Y-41002000D03*
%TD*%
D19*
%TO.P,C2,1*%
%TO.N,+3.3V*%
X90683000Y-62225000D03*
%TO.P,C2,2*%
%TO.N,GND*%
X91643000Y-62225000D03*
%TD*%
D20*
%TO.P,U3,1,D0*%
%TO.N,/D0*%
X77983000Y-39873000D03*
D21*
%TO.P,U3,2,D1*%
%TO.N,/D1*%
X77983000Y-42413000D03*
%TO.P,U3,3,D2*%
%TO.N,/D2*%
X77983000Y-44953000D03*
%TO.P,U3,4,D3*%
%TO.N,/D3*%
X77983000Y-47493000D03*
%TO.P,U3,5,D4*%
%TO.N,/D4*%
X77983000Y-50033000D03*
%TO.P,U3,6,D5*%
%TO.N,/D5*%
X77983000Y-52573000D03*
%TO.P,U3,7,D6*%
%TO.N,/D6*%
X77983000Y-55113000D03*
%TO.P,U3,8,D7*%
%TO.N,/D7*%
X77983000Y-57653000D03*
%TO.P,U3,9,~{CS}*%
%TO.N,/~{CS}*%
X77983000Y-60193000D03*
%TO.P,U3,10,E*%
%TO.N,/E*%
X77983000Y-62733000D03*
%TO.P,U3,11,CasMotor*%
%TO.N,/CasMotor*%
X77983000Y-65273000D03*
%TO.P,U3,12,CasIn*%
%TO.N,/CasIn*%
X77983000Y-67813000D03*
%TO.P,U3,13,DCD*%
%TO.N,/DCD*%
X77983000Y-70353000D03*
%TO.P,U3,14,GND*%
%TO.N,GND*%
X77983000Y-72893000D03*
%TO.P,U3,15,CR*%
%TO.N,unconnected-(U3-CR-Pad15)*%
X93223000Y-72893000D03*
%TO.P,U3,16,Din*%
%TO.N,/Din*%
X93223000Y-70353000D03*
%TO.P,U3,17,RxD*%
%TO.N,/RxD*%
X93223000Y-67813000D03*
%TO.P,U3,18,RxC*%
%TO.N,/RxC*%
X93223000Y-65273000D03*
%TO.P,U3,19,CTSO*%
%TO.N,/CTSO*%
X93223000Y-62733000D03*
%TO.P,U3,20,CTSI*%
%TO.N,/CTSI*%
X93223000Y-60193000D03*
%TO.P,U3,21,Dout*%
%TO.N,/Dout*%
X93223000Y-57653000D03*
%TO.P,U3,22,TxD*%
%TO.N,/TxD*%
X93223000Y-55113000D03*
%TO.P,U3,23,RTSO*%
%TO.N,/RTSO*%
X93223000Y-52573000D03*
%TO.P,U3,24,RTSI*%
%TO.N,/RTSI*%
X93223000Y-50033000D03*
%TO.P,U3,25,Clk*%
%TO.N,/Clk*%
X93223000Y-47493000D03*
%TO.P,U3,26,TxC*%
%TO.N,/TxC*%
X93223000Y-44953000D03*
%TO.P,U3,27,CasOut*%
%TO.N,/CasOut*%
X93223000Y-42413000D03*
%TO.P,U3,28,VCC*%
%TO.N,+5V*%
X93223000Y-39873000D03*
%TD*%
D13*
%TO.P,R4,1*%
%TO.N,/CasOut*%
X82811000Y-47493000D03*
%TO.P,R4,2*%
%TO.N,GND*%
X81791000Y-47493000D03*
%TD*%
%TO.P,R1,1*%
%TO.N,+5V*%
X84843000Y-47493000D03*
%TO.P,R1,2*%
%TO.N,/CasOut*%
X83823000Y-47493000D03*
%TD*%
D22*
%TO.P,C2.1,1*%
%TO.N,+5V*%
X90429000Y-40552500D03*
%TO.P,C2.1,2*%
%TO.N,GND*%
X90429000Y-43257500D03*
%TD*%
D23*
%TO.P,C1,1*%
%TO.N,+3.3V*%
X86619000Y-64610000D03*
%TO.P,C1,2*%
%TO.N,GND*%
X86619000Y-63650000D03*
%TD*%
D24*
%TO.P,C2.2,1*%
%TO.N,+3.3V*%
X90429000Y-48235900D03*
%TO.P,C2.2,2*%
%TO.N,GND*%
X90429000Y-45530900D03*
%TD*%
D19*
%TO.P,C3,1*%
%TO.N,+3.3V*%
X90711000Y-50541000D03*
%TO.P,C3,2*%
%TO.N,GND*%
X91671000Y-50541000D03*
%TD*%
D25*
%TO.N,GND*%
X80015000Y-61336000D03*
X90688319Y-51508000D03*
X91699000Y-41905000D03*
X85857000Y-60574000D03*
X91723940Y-47745279D03*
X91692686Y-61258000D03*
X81285000Y-54783000D03*
X88433001Y-44541304D03*
X88778000Y-39619000D03*
X89653000Y-58833000D03*
%TO.N,/CasIn*%
X80521000Y-62967958D03*
X80521000Y-65908000D03*
%TO.N,/E*%
X80759097Y-51539096D03*
%TO.N,/Clk*%
X80633350Y-50506995D03*
%TO.N,/TCK*%
X81285000Y-60447000D03*
%TO.N,/TDO*%
X90073467Y-59740309D03*
X83511000Y-66637001D03*
X81539000Y-67940000D03*
%TO.N,/TDI*%
X81826525Y-58524021D03*
%TO.N,/TMS*%
X81601229Y-59498314D03*
%TO.N,+3.3V*%
X89540000Y-49271000D03*
X88433000Y-42310819D03*
%TO.N,Net-(JP1-B)*%
X84852999Y-60521924D03*
%TD*%
D26*
%TO.N,/CasIn*%
X80521000Y-63372810D02*
X80521000Y-62967958D01*
X79109000Y-64784810D02*
X80521000Y-63372810D01*
%TO.N,/DCD*%
X83203000Y-63230810D02*
X83203000Y-62045500D01*
X79560000Y-64971620D02*
X80839620Y-63692000D01*
X80839620Y-63692000D02*
X82741810Y-63692000D01*
X79560000Y-66873810D02*
X79560000Y-64971620D01*
X79109000Y-67324810D02*
X79560000Y-66873810D01*
X77983000Y-70353000D02*
X79109000Y-69227000D01*
X79109000Y-69227000D02*
X79109000Y-67324810D01*
X82741810Y-63692000D02*
X83203000Y-63230810D01*
D27*
%TO.N,+5V*%
X84933000Y-47403000D02*
X84843000Y-47493000D01*
X88085488Y-47403000D02*
X84933000Y-47403000D01*
D26*
%TO.N,/RxD*%
X89585379Y-64434999D02*
X91747189Y-64434999D01*
%TO.N,/RxC*%
X89772189Y-63983999D02*
X91933999Y-63983999D01*
%TO.N,/CTSO*%
X89958999Y-63532999D02*
X92423001Y-63532999D01*
D27*
%TO.N,+3.3V*%
X84361000Y-65082000D02*
X84424000Y-65019000D01*
X84361000Y-67785000D02*
X84361000Y-65082000D01*
X83063000Y-69083000D02*
X84361000Y-67785000D01*
X84424000Y-65019000D02*
X84803000Y-64640000D01*
X83573000Y-65019000D02*
X84424000Y-65019000D01*
%TO.N,+5V*%
X88586500Y-41002000D02*
X89283000Y-41698500D01*
X87356000Y-41002000D02*
X88586500Y-41002000D01*
X88085488Y-47403000D02*
X89283000Y-46205488D01*
X89283000Y-41698500D02*
X89283000Y-46205488D01*
D26*
%TO.N,/CasIn*%
X79109000Y-64784810D02*
X79109000Y-66687000D01*
X79109000Y-66687000D02*
X77983000Y-67813000D01*
X80521000Y-62967958D02*
X80523000Y-62969958D01*
%TO.N,/CasMotor*%
X79795000Y-63461000D02*
X77983000Y-65273000D01*
X79795000Y-62667238D02*
X79795000Y-63461000D01*
X80416738Y-62045500D02*
X79795000Y-62667238D01*
X81603000Y-62045500D02*
X80416738Y-62045500D01*
%TO.N,/CasIn*%
X80794042Y-63241000D02*
X81944999Y-63241000D01*
X80521000Y-62967958D02*
X80794042Y-63241000D01*
D28*
%TO.N,GND*%
X81600561Y-65078561D02*
X81541000Y-65019000D01*
X81600561Y-66239786D02*
X81600561Y-65078561D01*
X80916347Y-66924000D02*
X81600561Y-66239786D01*
X80269000Y-66924000D02*
X80916347Y-66924000D01*
X79634000Y-67559000D02*
X80269000Y-66924000D01*
X79634000Y-68194000D02*
X79634000Y-67559000D01*
X80523000Y-69083000D02*
X79634000Y-68194000D01*
D26*
%TO.N,/CasIn*%
X80521000Y-65629439D02*
X80799561Y-65908000D01*
X80521000Y-65019000D02*
X80521000Y-65629439D01*
X81167000Y-64373000D02*
X80521000Y-65019000D01*
X82553000Y-65019000D02*
X81907000Y-64373000D01*
X81907000Y-64373000D02*
X81167000Y-64373000D01*
%TO.N,/D0*%
X77983000Y-39873000D02*
X79704000Y-41594000D01*
X83759000Y-48139000D02*
X85603000Y-49983001D01*
X80542430Y-48139000D02*
X83759000Y-48139000D01*
X85603000Y-49983001D02*
X85603000Y-50720500D01*
X80015000Y-47611570D02*
X80542430Y-48139000D01*
X79704000Y-41594000D02*
X79704000Y-45398380D01*
X79704000Y-45398380D02*
X80015000Y-45709380D01*
X80015000Y-45709380D02*
X80015000Y-47611570D01*
%TO.N,/D5*%
X79940500Y-53183000D02*
X78593000Y-53183000D01*
X78593000Y-53183000D02*
X77983000Y-52573000D01*
%TO.N,/D3*%
X83203000Y-49983001D02*
X83203000Y-50720500D01*
X82711998Y-49492000D02*
X83203000Y-49983001D01*
X79982000Y-49492000D02*
X82711998Y-49492000D01*
X77983000Y-47493000D02*
X79982000Y-49492000D01*
%TO.N,/D7*%
X78453000Y-57183000D02*
X77983000Y-57653000D01*
X79940500Y-57183000D02*
X78453000Y-57183000D01*
%TO.N,/D1*%
X79560000Y-45892190D02*
X79560000Y-47794380D01*
X84803000Y-49983001D02*
X84803000Y-50720500D01*
X79560000Y-47794380D02*
X80355620Y-48590000D01*
X80355620Y-48590000D02*
X83410000Y-48590000D01*
X79253000Y-45585190D02*
X79560000Y-45892190D01*
X77983000Y-42413000D02*
X79253000Y-43683000D01*
X83410000Y-48590000D02*
X84803000Y-49983001D01*
X79253000Y-43683000D02*
X79253000Y-45585190D01*
%TO.N,/D6*%
X79113000Y-53983000D02*
X77983000Y-55113000D01*
X79940500Y-53983000D02*
X79113000Y-53983000D01*
%TO.N,/D4*%
X77983000Y-50033000D02*
X77983000Y-50980595D01*
X77983000Y-50980595D02*
X78745000Y-51742595D01*
X79300095Y-51742595D02*
X79940500Y-52383000D01*
X78745000Y-51742595D02*
X79300095Y-51742595D01*
%TO.N,/D2*%
X79109000Y-47981190D02*
X80168810Y-49041000D01*
X77983000Y-44953000D02*
X79109000Y-46079000D01*
X83061000Y-49041000D02*
X84003000Y-49983001D01*
X79109000Y-46079000D02*
X79109000Y-47981190D01*
X84003000Y-49983001D02*
X84003000Y-50720500D01*
X80168810Y-49041000D02*
X83061000Y-49041000D01*
D27*
%TO.N,+5V*%
X90429000Y-40552500D02*
X92543500Y-40552500D01*
X90429000Y-40552500D02*
X89283000Y-41698500D01*
X92543500Y-40552500D02*
X93223000Y-39873000D01*
D28*
%TO.N,GND*%
X78498000Y-73662000D02*
X91438000Y-73662000D01*
D27*
X79940500Y-54783000D02*
X81285000Y-54783000D01*
X91671000Y-47798219D02*
X91723940Y-47745279D01*
X87372305Y-45602000D02*
X88433001Y-44541304D01*
X85857000Y-60721419D02*
X85857000Y-60574000D01*
X89413000Y-65807587D02*
X87255413Y-63650000D01*
D28*
X91953000Y-73147000D02*
X91953000Y-70353000D01*
D27*
X90373100Y-45475000D02*
X90429000Y-45530900D01*
D28*
X91438000Y-73662000D02*
X91953000Y-73147000D01*
D27*
X86433924Y-63650000D02*
X86619000Y-63650000D01*
X90429000Y-45530900D02*
X90429000Y-43257500D01*
X90357900Y-45602000D02*
X90429000Y-45530900D01*
X91699000Y-41905000D02*
X91699000Y-41987500D01*
X82541000Y-45602000D02*
X81791000Y-46352000D01*
D28*
X90683000Y-69083000D02*
X89413000Y-67813000D01*
D27*
X89703000Y-58783000D02*
X89653000Y-58833000D01*
X78014000Y-72924000D02*
X77983000Y-72893000D01*
D28*
X89413000Y-70353000D02*
X90683000Y-69083000D01*
D27*
X87356000Y-45602000D02*
X87372305Y-45602000D01*
X87356000Y-45602000D02*
X82541000Y-45602000D01*
X87356000Y-45602000D02*
X87356000Y-45407771D01*
X90271500Y-45475000D02*
X90429000Y-45632500D01*
X91692686Y-61258000D02*
X91692686Y-62175314D01*
X81791000Y-46352000D02*
X81791000Y-47493000D01*
X91699000Y-41987500D02*
X90429000Y-43257500D01*
X87255413Y-63650000D02*
X86619000Y-63650000D01*
D28*
X81793000Y-70353000D02*
X89413000Y-70353000D01*
D27*
X90688319Y-51508000D02*
X90893682Y-51508000D01*
D28*
X77983000Y-73147000D02*
X78498000Y-73662000D01*
D27*
X85603000Y-62045500D02*
X85603000Y-60975419D01*
X91671000Y-50730682D02*
X91671000Y-50541000D01*
%TO.N,/CasIn*%
X80523000Y-65021000D02*
X80521000Y-65019000D01*
%TO.N,GND*%
X91692686Y-62175314D02*
X91643000Y-62225000D01*
X89413000Y-67813000D02*
X89413000Y-65807587D01*
X90893682Y-51508000D02*
X91671000Y-50730682D01*
D28*
X77983000Y-72893000D02*
X77983000Y-73147000D01*
D27*
X77983000Y-72893000D02*
X77983000Y-72644000D01*
X85603000Y-60975419D02*
X85857000Y-60721419D01*
X91265500Y-58783000D02*
X89703000Y-58783000D01*
X85603000Y-62819076D02*
X86433924Y-63650000D01*
D28*
X81234000Y-54783000D02*
X81285000Y-54732000D01*
D27*
X85603000Y-62045500D02*
X85603000Y-62819076D01*
D28*
X80523000Y-69083000D02*
X81793000Y-70353000D01*
D27*
X91671000Y-50541000D02*
X91671000Y-47798219D01*
D28*
X91953000Y-70353000D02*
X90683000Y-69083000D01*
D26*
%TO.N,/CTSI*%
X93033000Y-60383000D02*
X93223000Y-60193000D01*
X91265500Y-60383000D02*
X93033000Y-60383000D01*
%TO.N,/RTSI*%
X91265500Y-51990500D02*
X91265500Y-52383000D01*
X93223000Y-50033000D02*
X91265500Y-51990500D01*
%TO.N,/CasIn*%
X82403000Y-62782999D02*
X81944999Y-63241000D01*
X82403000Y-62045500D02*
X82403000Y-62782999D01*
%TO.N,/E*%
X80910635Y-51690634D02*
X80759097Y-51539096D01*
X80910635Y-51811000D02*
X81909298Y-51811000D01*
X81909298Y-51811000D02*
X82403000Y-51317298D01*
X82403000Y-51317298D02*
X82403000Y-50720500D01*
X80910635Y-51811000D02*
X80910635Y-51690634D01*
%TO.N,/Clk*%
X80633350Y-50506995D02*
X81389495Y-50506995D01*
X81389495Y-50506995D02*
X81603000Y-50720500D01*
%TO.N,/CasOut*%
X91450000Y-46335514D02*
X91450000Y-44186000D01*
X87379000Y-48126000D02*
X87381000Y-48124000D01*
X82811000Y-47493000D02*
X83823000Y-47493000D01*
X86225000Y-48139000D02*
X86238000Y-48126000D01*
X87381000Y-48124000D02*
X88179076Y-48124000D01*
X91119514Y-46666000D02*
X91450000Y-46335514D01*
X91450000Y-44186000D02*
X93223000Y-42413000D01*
X89637076Y-46666000D02*
X91119514Y-46666000D01*
X84469000Y-48139000D02*
X86225000Y-48139000D01*
X83823000Y-47493000D02*
X84469000Y-48139000D01*
X88179076Y-48124000D02*
X89637076Y-46666000D01*
X86238000Y-48126000D02*
X87379000Y-48126000D01*
%TO.N,/Dout*%
X93223000Y-57653000D02*
X92753000Y-57183000D01*
X92753000Y-57183000D02*
X91265500Y-57183000D01*
%TO.N,/TxD*%
X91265500Y-56383000D02*
X91953000Y-56383000D01*
X91953000Y-56383000D02*
X93223000Y-55113000D01*
%TO.N,/RxC*%
X89772189Y-63983999D02*
X88803000Y-63014810D01*
X88803000Y-63014810D02*
X88803000Y-62045500D01*
X93223000Y-65273000D02*
X91933999Y-63983999D01*
%TO.N,/RTSO*%
X92613000Y-53183000D02*
X93223000Y-52573000D01*
X91265500Y-53183000D02*
X92613000Y-53183000D01*
%TO.N,/~{CS}*%
X79940500Y-57983000D02*
X79343702Y-57983000D01*
X79343702Y-57983000D02*
X77983000Y-59343702D01*
X77983000Y-59343702D02*
X77983000Y-60193000D01*
%TO.N,/CTSO*%
X89958999Y-63532999D02*
X89603000Y-63177000D01*
X89603000Y-63177000D02*
X89603000Y-62045500D01*
X92423001Y-63532999D02*
X93223000Y-62733000D01*
%TO.N,/Din*%
X87203000Y-62782999D02*
X87203000Y-62045500D01*
X89306000Y-64885999D02*
X87203000Y-62782999D01*
X91646000Y-66873810D02*
X91646000Y-65220000D01*
X91646000Y-65220000D02*
X91311999Y-64885999D01*
X91311999Y-64885999D02*
X89306000Y-64885999D01*
X92097000Y-67324810D02*
X91646000Y-66873810D01*
X92097000Y-69227000D02*
X92097000Y-67324810D01*
X93223000Y-70353000D02*
X92097000Y-69227000D01*
%TO.N,/TCK*%
X79940500Y-60383000D02*
X81221000Y-60383000D01*
X81221000Y-60383000D02*
X81285000Y-60447000D01*
%TO.N,/TDO*%
X91265500Y-59583000D02*
X90230776Y-59583000D01*
X90230776Y-59583000D02*
X90073467Y-59740309D01*
%TO.N,/TDI*%
X79940500Y-58783000D02*
X80677999Y-58783000D01*
X80677999Y-58783000D02*
X80936978Y-58524021D01*
X80936978Y-58524021D02*
X81826525Y-58524021D01*
%TO.N,/TMS*%
X81516543Y-59583000D02*
X81601229Y-59498314D01*
X79940500Y-59583000D02*
X81516543Y-59583000D01*
%TO.N,/TxC*%
X93223000Y-44953000D02*
X93223000Y-45200324D01*
X91306324Y-47117000D02*
X89823886Y-47117000D01*
X88027000Y-50696500D02*
X88003000Y-50720500D01*
X93223000Y-45200324D02*
X91306324Y-47117000D01*
X88027000Y-48913886D02*
X88027000Y-50696500D01*
X89823886Y-47117000D02*
X88027000Y-48913886D01*
%TO.N,/RxD*%
X92097000Y-64784810D02*
X91747189Y-64434999D01*
X88003000Y-62852620D02*
X88003000Y-62045500D01*
X89585379Y-64434999D02*
X88003000Y-62852620D01*
X92097000Y-66687000D02*
X92097000Y-64784810D01*
X93223000Y-67813000D02*
X92097000Y-66687000D01*
D27*
%TO.N,+3.3V*%
X88803000Y-58415000D02*
X88803000Y-59671924D01*
X87356000Y-43175000D02*
X87635000Y-43175000D01*
X88803000Y-49946924D02*
X89478924Y-49271000D01*
X89235000Y-57983000D02*
X88803000Y-58415000D01*
X90491924Y-57983000D02*
X90077000Y-57568076D01*
X88803000Y-50720500D02*
X88803000Y-49946924D01*
X90077000Y-52221000D02*
X89765000Y-51909000D01*
X88803000Y-51494076D02*
X88803000Y-50720500D01*
X90429000Y-48235900D02*
X90429000Y-49017000D01*
X87356000Y-43302000D02*
X87441819Y-43302000D01*
X89217924Y-51909000D02*
X88803000Y-51494076D01*
X90711000Y-49299000D02*
X90711000Y-50541000D01*
X89540000Y-49271000D02*
X89540000Y-49124900D01*
X87356000Y-43302000D02*
X87762000Y-43302000D01*
X84474076Y-59670924D02*
X88802000Y-59670924D01*
X84003000Y-62045500D02*
X84003000Y-63391000D01*
X81056000Y-43302000D02*
X87356000Y-43302000D01*
X91265500Y-57983000D02*
X89235000Y-57983000D01*
X90077000Y-57568076D02*
X90077000Y-52221000D01*
X84003000Y-62045500D02*
X84003000Y-60142000D01*
X83573000Y-63821000D02*
X84003000Y-63391000D01*
X89540000Y-49124900D02*
X90429000Y-48235900D01*
X88803000Y-59671924D02*
X90683000Y-61551924D01*
X86589000Y-64640000D02*
X86619000Y-64610000D01*
X89765000Y-51909000D02*
X89217924Y-51909000D01*
X90429000Y-49017000D02*
X90711000Y-49299000D01*
X88802000Y-59670924D02*
X88803000Y-59671924D01*
X89478924Y-49271000D02*
X89540000Y-49271000D01*
X87441819Y-43302000D02*
X88433000Y-42310819D01*
X90683000Y-61551924D02*
X90683000Y-62225000D01*
X84003000Y-60142000D02*
X84474076Y-59670924D01*
X84803000Y-64640000D02*
X86589000Y-64640000D01*
X91265500Y-57983000D02*
X90491924Y-57983000D01*
X83573000Y-65019000D02*
X83573000Y-63821000D01*
D26*
%TO.N,/CasOut1*%
X87203000Y-49072000D02*
X87254000Y-49021000D01*
X87203000Y-50720500D02*
X87203000Y-49322000D01*
X87203000Y-49322000D02*
X87381000Y-49144000D01*
%TO.N,/CasOut0*%
X86403000Y-50720500D02*
X86403000Y-49311000D01*
X86403000Y-49311000D02*
X86238000Y-49146000D01*
D28*
%TO.N,Net-(JP1-B)*%
X84803000Y-60571923D02*
X84852999Y-60521924D01*
X84803000Y-62045500D02*
X84803000Y-63620000D01*
X84803000Y-62045500D02*
X84803000Y-60571923D01*
D26*
%TO.N,/TDO*%
X81539000Y-67940000D02*
X82208001Y-67940000D01*
X82208001Y-67940000D02*
X83511000Y-66637001D01*
%TD*%
%TA.AperFunction,Conductor*%
%TO.N,GND*%
G36*
X87634194Y-63751334D02*
G01*
X87640680Y-63757373D01*
X88997983Y-65114676D01*
X88997993Y-65114687D01*
X89002323Y-65119017D01*
X89002324Y-65119018D01*
X89072981Y-65189675D01*
X89072983Y-65189676D01*
X89072984Y-65189677D01*
X89100414Y-65205513D01*
X89159518Y-65239637D01*
X89159517Y-65239637D01*
X89162548Y-65240448D01*
X89179915Y-65245102D01*
X89256038Y-65265500D01*
X89355962Y-65265500D01*
X89355966Y-65265499D01*
X91103443Y-65265499D01*
X91170482Y-65285184D01*
X91191124Y-65301818D01*
X91230181Y-65340875D01*
X91263666Y-65402198D01*
X91266500Y-65428556D01*
X91266500Y-66823844D01*
X91266499Y-66823848D01*
X91266499Y-66923772D01*
X91285295Y-66993917D01*
X91287745Y-67003062D01*
X91287746Y-67003067D01*
X91292362Y-67020291D01*
X91292363Y-67020294D01*
X91342321Y-67106825D01*
X91342325Y-67106830D01*
X91420046Y-67184551D01*
X91420052Y-67184556D01*
X91681181Y-67445685D01*
X91714666Y-67507008D01*
X91717500Y-67533366D01*
X91717500Y-67922552D01*
X91697815Y-67989591D01*
X91645011Y-68035346D01*
X91575853Y-68045290D01*
X91520615Y-68022871D01*
X91390553Y-67928376D01*
X91201217Y-67831904D01*
X90999129Y-67766242D01*
X90789246Y-67733000D01*
X90576754Y-67733000D01*
X90366872Y-67766242D01*
X90366869Y-67766242D01*
X90164782Y-67831904D01*
X89975439Y-67928380D01*
X89921282Y-67967727D01*
X89921282Y-67967728D01*
X90553591Y-68600037D01*
X90490007Y-68617075D01*
X90375993Y-68682901D01*
X90282901Y-68775993D01*
X90217075Y-68890007D01*
X90200037Y-68953591D01*
X89567728Y-68321282D01*
X89567727Y-68321282D01*
X89528380Y-68375439D01*
X89431904Y-68564782D01*
X89401864Y-68657238D01*
X89362427Y-68714913D01*
X89298068Y-68742112D01*
X89229222Y-68730197D01*
X89177746Y-68682953D01*
X89168804Y-68663373D01*
X89168446Y-68663522D01*
X89166582Y-68659024D01*
X89166580Y-68659021D01*
X89166580Y-68659019D01*
X89087653Y-68504116D01*
X88985465Y-68363467D01*
X88862533Y-68240535D01*
X88721884Y-68138347D01*
X88664568Y-68109143D01*
X88566978Y-68059418D01*
X88401641Y-68005697D01*
X88272854Y-67985299D01*
X88229926Y-67978500D01*
X88056074Y-67978500D01*
X87998836Y-67987565D01*
X87884360Y-68005697D01*
X87884357Y-68005697D01*
X87719021Y-68059418D01*
X87564115Y-68138347D01*
X87483869Y-68196649D01*
X87423467Y-68240535D01*
X87423465Y-68240537D01*
X87423464Y-68240537D01*
X87300537Y-68363464D01*
X87300537Y-68363465D01*
X87300535Y-68363467D01*
X87265667Y-68411458D01*
X87198347Y-68504115D01*
X87119418Y-68659021D01*
X87065697Y-68824357D01*
X87065697Y-68824360D01*
X87052731Y-68906223D01*
X87038500Y-68996074D01*
X87038500Y-69169926D01*
X87052098Y-69255782D01*
X87065697Y-69341639D01*
X87065697Y-69341642D01*
X87119418Y-69506978D01*
X87198347Y-69661884D01*
X87300535Y-69802533D01*
X87423467Y-69925465D01*
X87564116Y-70027653D01*
X87598988Y-70045421D01*
X87719021Y-70106581D01*
X87884358Y-70160302D01*
X87884359Y-70160302D01*
X87884362Y-70160303D01*
X88056074Y-70187500D01*
X88056075Y-70187500D01*
X88229925Y-70187500D01*
X88229926Y-70187500D01*
X88401638Y-70160303D01*
X88401641Y-70160302D01*
X88401642Y-70160302D01*
X88566978Y-70106581D01*
X88566978Y-70106580D01*
X88566981Y-70106580D01*
X88721884Y-70027653D01*
X88862533Y-69925465D01*
X88985465Y-69802533D01*
X89087653Y-69661884D01*
X89166580Y-69506981D01*
X89166582Y-69506975D01*
X89168446Y-69502478D01*
X89169891Y-69503076D01*
X89205430Y-69451093D01*
X89269786Y-69423889D01*
X89338633Y-69435796D01*
X89390114Y-69483035D01*
X89401864Y-69508761D01*
X89431904Y-69601217D01*
X89528375Y-69790550D01*
X89567728Y-69844716D01*
X90200037Y-69212408D01*
X90217075Y-69275993D01*
X90282901Y-69390007D01*
X90375993Y-69483099D01*
X90490007Y-69548925D01*
X90553590Y-69565962D01*
X89921282Y-70198269D01*
X89921282Y-70198270D01*
X89975449Y-70237624D01*
X90164784Y-70334096D01*
X90257237Y-70364135D01*
X90314913Y-70403571D01*
X90342112Y-70467930D01*
X90330198Y-70536776D01*
X90282954Y-70588253D01*
X90263374Y-70597198D01*
X90263522Y-70597554D01*
X90259024Y-70599417D01*
X90104115Y-70678347D01*
X90023869Y-70736649D01*
X89963467Y-70780535D01*
X89963465Y-70780537D01*
X89963464Y-70780537D01*
X89840537Y-70903464D01*
X89840537Y-70903465D01*
X89840535Y-70903467D01*
X89796649Y-70963869D01*
X89738347Y-71044115D01*
X89659418Y-71199021D01*
X89605697Y-71364357D01*
X89605697Y-71364360D01*
X89578500Y-71536074D01*
X89578500Y-71709925D01*
X89605697Y-71881639D01*
X89605697Y-71881642D01*
X89659418Y-72046978D01*
X89738347Y-72201884D01*
X89840535Y-72342533D01*
X89963467Y-72465465D01*
X90104116Y-72567653D01*
X90242421Y-72638123D01*
X90259021Y-72646581D01*
X90424358Y-72700302D01*
X90424359Y-72700302D01*
X90424362Y-72700303D01*
X90596074Y-72727500D01*
X90596075Y-72727500D01*
X90769925Y-72727500D01*
X90769926Y-72727500D01*
X90941638Y-72700303D01*
X90941641Y-72700302D01*
X90941642Y-72700302D01*
X91106978Y-72646581D01*
X91106978Y-72646580D01*
X91106981Y-72646580D01*
X91261884Y-72567653D01*
X91402533Y-72465465D01*
X91525465Y-72342533D01*
X91627653Y-72201884D01*
X91706580Y-72046981D01*
X91760303Y-71881638D01*
X91787500Y-71709926D01*
X91787500Y-71536074D01*
X91760303Y-71364362D01*
X91760302Y-71364358D01*
X91760302Y-71364357D01*
X91706581Y-71199021D01*
X91689401Y-71165304D01*
X91627653Y-71044116D01*
X91525465Y-70903467D01*
X91402533Y-70780535D01*
X91261884Y-70678347D01*
X91106981Y-70599420D01*
X91106980Y-70599419D01*
X91106975Y-70599417D01*
X91102478Y-70597554D01*
X91103073Y-70596115D01*
X91051069Y-70560539D01*
X91023884Y-70496174D01*
X91035813Y-70427331D01*
X91083069Y-70375865D01*
X91108762Y-70364134D01*
X91201221Y-70334093D01*
X91390554Y-70237622D01*
X91444716Y-70198270D01*
X91444717Y-70198270D01*
X90812408Y-69565962D01*
X90875993Y-69548925D01*
X90990007Y-69483099D01*
X91083099Y-69390007D01*
X91148925Y-69275993D01*
X91165962Y-69212408D01*
X91798270Y-69844717D01*
X91798270Y-69844716D01*
X91837624Y-69790552D01*
X91856756Y-69753003D01*
X91876072Y-69732550D01*
X91892931Y-69710030D01*
X91899738Y-69707490D01*
X91904729Y-69702207D01*
X91932036Y-69695444D01*
X91958395Y-69685613D01*
X91965496Y-69687157D01*
X91972550Y-69685411D01*
X91999176Y-69694484D01*
X92026668Y-69700465D01*
X92034975Y-69706683D01*
X92038685Y-69707948D01*
X92054921Y-69721615D01*
X92200140Y-69866834D01*
X92233625Y-69928157D01*
X92228641Y-69997849D01*
X92227020Y-70001967D01*
X92209024Y-70045412D01*
X92209021Y-70045421D01*
X92168500Y-70249136D01*
X92168500Y-70456863D01*
X92209022Y-70660578D01*
X92209025Y-70660590D01*
X92288511Y-70852488D01*
X92288512Y-70852490D01*
X92403916Y-71025203D01*
X92403919Y-71025207D01*
X92550792Y-71172080D01*
X92550796Y-71172083D01*
X92723507Y-71287486D01*
X92723508Y-71287486D01*
X92723509Y-71287487D01*
X92723511Y-71287488D01*
X92909091Y-71364357D01*
X92915414Y-71366976D01*
X93092471Y-71402195D01*
X93119136Y-71407499D01*
X93119139Y-71407500D01*
X93119141Y-71407500D01*
X93326861Y-71407500D01*
X93326862Y-71407499D01*
X93530586Y-71366976D01*
X93722493Y-71287486D01*
X93895204Y-71172083D01*
X93901983Y-71165304D01*
X93980819Y-71086469D01*
X94042142Y-71052984D01*
X94111834Y-71057968D01*
X94167767Y-71099840D01*
X94192184Y-71165304D01*
X94192500Y-71174150D01*
X94192500Y-72071850D01*
X94172815Y-72138889D01*
X94120011Y-72184644D01*
X94050853Y-72194588D01*
X93987297Y-72165563D01*
X93980819Y-72159531D01*
X93895207Y-72073919D01*
X93895203Y-72073916D01*
X93722490Y-71958512D01*
X93722488Y-71958511D01*
X93530590Y-71879025D01*
X93530578Y-71879022D01*
X93326862Y-71838500D01*
X93326859Y-71838500D01*
X93119141Y-71838500D01*
X93119138Y-71838500D01*
X92915421Y-71879022D01*
X92915409Y-71879025D01*
X92723511Y-71958511D01*
X92723509Y-71958512D01*
X92550796Y-72073916D01*
X92550792Y-72073919D01*
X92403919Y-72220792D01*
X92403916Y-72220796D01*
X92288512Y-72393509D01*
X92288511Y-72393511D01*
X92209025Y-72585409D01*
X92209022Y-72585421D01*
X92168500Y-72789136D01*
X92168500Y-72996863D01*
X92209022Y-73200578D01*
X92209025Y-73200590D01*
X92288511Y-73392488D01*
X92288512Y-73392490D01*
X92403916Y-73565203D01*
X92403919Y-73565207D01*
X92489531Y-73650819D01*
X92523016Y-73712142D01*
X92518032Y-73781834D01*
X92476160Y-73837767D01*
X92410696Y-73862184D01*
X92401850Y-73862500D01*
X79128870Y-73862500D01*
X79061831Y-73842815D01*
X79016076Y-73790011D01*
X79006132Y-73720853D01*
X79028552Y-73665615D01*
X79094857Y-73574352D01*
X79187755Y-73392031D01*
X79250990Y-73197417D01*
X79283000Y-72995317D01*
X79283000Y-72790682D01*
X79278581Y-72762783D01*
X79287535Y-72693490D01*
X79332531Y-72640038D01*
X79399283Y-72619398D01*
X79466597Y-72638123D01*
X79488735Y-72655704D01*
X79489514Y-72656483D01*
X79510703Y-72670641D01*
X79573699Y-72712734D01*
X79573702Y-72712734D01*
X79573703Y-72712735D01*
X79598666Y-72717700D01*
X79647933Y-72727500D01*
X81398066Y-72727499D01*
X81472301Y-72712734D01*
X81556484Y-72656484D01*
X81612734Y-72572301D01*
X81627500Y-72498067D01*
X81627499Y-71536074D01*
X81958500Y-71536074D01*
X81958500Y-71709925D01*
X81985697Y-71881639D01*
X81985697Y-71881642D01*
X82039418Y-72046978D01*
X82118347Y-72201884D01*
X82220535Y-72342533D01*
X82343467Y-72465465D01*
X82484116Y-72567653D01*
X82622421Y-72638123D01*
X82639021Y-72646581D01*
X82804358Y-72700302D01*
X82804359Y-72700302D01*
X82804362Y-72700303D01*
X82976074Y-72727500D01*
X82976075Y-72727500D01*
X83149925Y-72727500D01*
X83149926Y-72727500D01*
X83321638Y-72700303D01*
X83321641Y-72700302D01*
X83321642Y-72700302D01*
X83486978Y-72646581D01*
X83486978Y-72646580D01*
X83486981Y-72646580D01*
X83641884Y-72567653D01*
X83782533Y-72465465D01*
X83905465Y-72342533D01*
X84007653Y-72201884D01*
X84086580Y-72046981D01*
X84140303Y-71881638D01*
X84167500Y-71709926D01*
X84167500Y-71536074D01*
X84498500Y-71536074D01*
X84498500Y-71709925D01*
X84525697Y-71881639D01*
X84525697Y-71881642D01*
X84579418Y-72046978D01*
X84658347Y-72201884D01*
X84760535Y-72342533D01*
X84883467Y-72465465D01*
X85024116Y-72567653D01*
X85162421Y-72638123D01*
X85179021Y-72646581D01*
X85344358Y-72700302D01*
X85344359Y-72700302D01*
X85344362Y-72700303D01*
X85516074Y-72727500D01*
X85516075Y-72727500D01*
X85689925Y-72727500D01*
X85689926Y-72727500D01*
X85861638Y-72700303D01*
X85861641Y-72700302D01*
X85861642Y-72700302D01*
X86026978Y-72646581D01*
X86026978Y-72646580D01*
X86026981Y-72646580D01*
X86181884Y-72567653D01*
X86322533Y-72465465D01*
X86445465Y-72342533D01*
X86547653Y-72201884D01*
X86626580Y-72046981D01*
X86680303Y-71881638D01*
X86707500Y-71709926D01*
X86707500Y-71536074D01*
X87038500Y-71536074D01*
X87038500Y-71709925D01*
X87065697Y-71881639D01*
X87065697Y-71881642D01*
X87119418Y-72046978D01*
X87198347Y-72201884D01*
X87300535Y-72342533D01*
X87423467Y-72465465D01*
X87564116Y-72567653D01*
X87702421Y-72638123D01*
X87719021Y-72646581D01*
X87884358Y-72700302D01*
X87884359Y-72700302D01*
X87884362Y-72700303D01*
X88056074Y-72727500D01*
X88056075Y-72727500D01*
X88229925Y-72727500D01*
X88229926Y-72727500D01*
X88401638Y-72700303D01*
X88401641Y-72700302D01*
X88401642Y-72700302D01*
X88566978Y-72646581D01*
X88566978Y-72646580D01*
X88566981Y-72646580D01*
X88721884Y-72567653D01*
X88862533Y-72465465D01*
X88985465Y-72342533D01*
X89087653Y-72201884D01*
X89166580Y-72046981D01*
X89220303Y-71881638D01*
X89247500Y-71709926D01*
X89247500Y-71536074D01*
X89220303Y-71364362D01*
X89220302Y-71364358D01*
X89220302Y-71364357D01*
X89166581Y-71199021D01*
X89149401Y-71165304D01*
X89087653Y-71044116D01*
X88985465Y-70903467D01*
X88862533Y-70780535D01*
X88721884Y-70678347D01*
X88687026Y-70660586D01*
X88566978Y-70599418D01*
X88401641Y-70545697D01*
X88272854Y-70525299D01*
X88229926Y-70518500D01*
X88056074Y-70518500D01*
X87998836Y-70527565D01*
X87884360Y-70545697D01*
X87884357Y-70545697D01*
X87719021Y-70599418D01*
X87564115Y-70678347D01*
X87483869Y-70736649D01*
X87423467Y-70780535D01*
X87423465Y-70780537D01*
X87423464Y-70780537D01*
X87300537Y-70903464D01*
X87300537Y-70903465D01*
X87300535Y-70903467D01*
X87256649Y-70963869D01*
X87198347Y-71044115D01*
X87119418Y-71199021D01*
X87065697Y-71364357D01*
X87065697Y-71364360D01*
X87038500Y-71536074D01*
X86707500Y-71536074D01*
X86680303Y-71364362D01*
X86680302Y-71364358D01*
X86680302Y-71364357D01*
X86626581Y-71199021D01*
X86609401Y-71165304D01*
X86547653Y-71044116D01*
X86445465Y-70903467D01*
X86322533Y-70780535D01*
X86181884Y-70678347D01*
X86147026Y-70660586D01*
X86026978Y-70599418D01*
X85861641Y-70545697D01*
X85732854Y-70525299D01*
X85689926Y-70518500D01*
X85516074Y-70518500D01*
X85458836Y-70527565D01*
X85344360Y-70545697D01*
X85344357Y-70545697D01*
X85179021Y-70599418D01*
X85024115Y-70678347D01*
X84943869Y-70736649D01*
X84883467Y-70780535D01*
X84883465Y-70780537D01*
X84883464Y-70780537D01*
X84760537Y-70903464D01*
X84760537Y-70903465D01*
X84760535Y-70903467D01*
X84716649Y-70963869D01*
X84658347Y-71044115D01*
X84579418Y-71199021D01*
X84525697Y-71364357D01*
X84525697Y-71364360D01*
X84498500Y-71536074D01*
X84167500Y-71536074D01*
X84140303Y-71364362D01*
X84140302Y-71364358D01*
X84140302Y-71364357D01*
X84086581Y-71199021D01*
X84069401Y-71165304D01*
X84007653Y-71044116D01*
X83905465Y-70903467D01*
X83782533Y-70780535D01*
X83641884Y-70678347D01*
X83607026Y-70660586D01*
X83486978Y-70599418D01*
X83321641Y-70545697D01*
X83192854Y-70525299D01*
X83149926Y-70518500D01*
X82976074Y-70518500D01*
X82918836Y-70527565D01*
X82804360Y-70545697D01*
X82804357Y-70545697D01*
X82639021Y-70599418D01*
X82484115Y-70678347D01*
X82403869Y-70736649D01*
X82343467Y-70780535D01*
X82343465Y-70780537D01*
X82343464Y-70780537D01*
X82220537Y-70903464D01*
X82220537Y-70903465D01*
X82220535Y-70903467D01*
X82176649Y-70963869D01*
X82118347Y-71044115D01*
X82039418Y-71199021D01*
X81985697Y-71364357D01*
X81985697Y-71364360D01*
X81958500Y-71536074D01*
X81627499Y-71536074D01*
X81627499Y-70747934D01*
X81612734Y-70673699D01*
X81563102Y-70599420D01*
X81556484Y-70589515D01*
X81490905Y-70545697D01*
X81472301Y-70533266D01*
X81472299Y-70533265D01*
X81472296Y-70533264D01*
X81398071Y-70518500D01*
X81195799Y-70518500D01*
X81128760Y-70498815D01*
X81083005Y-70446011D01*
X81073061Y-70376853D01*
X81102086Y-70313297D01*
X81139504Y-70284015D01*
X81230554Y-70237622D01*
X81284716Y-70198270D01*
X81284717Y-70198270D01*
X80652408Y-69565962D01*
X80715993Y-69548925D01*
X80830007Y-69483099D01*
X80923099Y-69390007D01*
X80988925Y-69275993D01*
X81005962Y-69212409D01*
X81638270Y-69844717D01*
X81638270Y-69844716D01*
X81677622Y-69790554D01*
X81774093Y-69601221D01*
X81804134Y-69508762D01*
X81843571Y-69451086D01*
X81907929Y-69423887D01*
X81976776Y-69435801D01*
X82028252Y-69483044D01*
X82037197Y-69502625D01*
X82037554Y-69502478D01*
X82039417Y-69506975D01*
X82039419Y-69506978D01*
X82039420Y-69506981D01*
X82118347Y-69661884D01*
X82220535Y-69802533D01*
X82343467Y-69925465D01*
X82484116Y-70027653D01*
X82518988Y-70045421D01*
X82639021Y-70106581D01*
X82804358Y-70160302D01*
X82804359Y-70160302D01*
X82804362Y-70160303D01*
X82976074Y-70187500D01*
X82976075Y-70187500D01*
X83149925Y-70187500D01*
X83149926Y-70187500D01*
X83321638Y-70160303D01*
X83321641Y-70160302D01*
X83321642Y-70160302D01*
X83486978Y-70106581D01*
X83486978Y-70106580D01*
X83486981Y-70106580D01*
X83641884Y-70027653D01*
X83782533Y-69925465D01*
X83905465Y-69802533D01*
X84007653Y-69661884D01*
X84086580Y-69506981D01*
X84094358Y-69483044D01*
X84140302Y-69341642D01*
X84140302Y-69341641D01*
X84140303Y-69341638D01*
X84167500Y-69169926D01*
X84167500Y-68996074D01*
X84140303Y-68824362D01*
X84137985Y-68817231D01*
X84135991Y-68747391D01*
X84168234Y-68691235D01*
X84419513Y-68439957D01*
X84480833Y-68406474D01*
X84550525Y-68411458D01*
X84606458Y-68453330D01*
X84630875Y-68518794D01*
X84617676Y-68583934D01*
X84579419Y-68659018D01*
X84579419Y-68659019D01*
X84525697Y-68824357D01*
X84525697Y-68824360D01*
X84512731Y-68906223D01*
X84498500Y-68996074D01*
X84498500Y-69169926D01*
X84512098Y-69255782D01*
X84525697Y-69341639D01*
X84525697Y-69341642D01*
X84579418Y-69506978D01*
X84658347Y-69661884D01*
X84760535Y-69802533D01*
X84883467Y-69925465D01*
X85024116Y-70027653D01*
X85058988Y-70045421D01*
X85179021Y-70106581D01*
X85344358Y-70160302D01*
X85344359Y-70160302D01*
X85344362Y-70160303D01*
X85516074Y-70187500D01*
X85516075Y-70187500D01*
X85689925Y-70187500D01*
X85689926Y-70187500D01*
X85861638Y-70160303D01*
X85861641Y-70160302D01*
X85861642Y-70160302D01*
X86026978Y-70106581D01*
X86026978Y-70106580D01*
X86026981Y-70106580D01*
X86181884Y-70027653D01*
X86322533Y-69925465D01*
X86445465Y-69802533D01*
X86547653Y-69661884D01*
X86626580Y-69506981D01*
X86634358Y-69483044D01*
X86680302Y-69341642D01*
X86680302Y-69341641D01*
X86680303Y-69341638D01*
X86707500Y-69169926D01*
X86707500Y-68996074D01*
X86680303Y-68824362D01*
X86680302Y-68824358D01*
X86680302Y-68824357D01*
X86626581Y-68659021D01*
X86580890Y-68569348D01*
X86547653Y-68504116D01*
X86445465Y-68363467D01*
X86322533Y-68240535D01*
X86181884Y-68138347D01*
X86124568Y-68109143D01*
X86026978Y-68059418D01*
X85861641Y-68005697D01*
X85732854Y-67985299D01*
X85689926Y-67978500D01*
X85516074Y-67978500D01*
X85458836Y-67987565D01*
X85344360Y-68005697D01*
X85344357Y-68005697D01*
X85179021Y-68059418D01*
X85024114Y-68138348D01*
X85005875Y-68151599D01*
X84940068Y-68175077D01*
X84872015Y-68159250D01*
X84823321Y-68109143D01*
X84809447Y-68040665D01*
X84825605Y-67989279D01*
X84831119Y-67979730D01*
X84847965Y-67916859D01*
X84865500Y-67851419D01*
X84865500Y-65342333D01*
X84874144Y-65312892D01*
X84880668Y-65282906D01*
X84884422Y-65277890D01*
X84885185Y-65275294D01*
X84901819Y-65254652D01*
X84958461Y-65198010D01*
X85019784Y-65164525D01*
X85026741Y-65163217D01*
X85109862Y-65150054D01*
X85109862Y-65150053D01*
X85119502Y-65148527D01*
X85119542Y-65148784D01*
X85146595Y-65144500D01*
X86669853Y-65144500D01*
X86669861Y-65144499D01*
X86820043Y-65144499D01*
X86820044Y-65144499D01*
X86912427Y-65129868D01*
X87023771Y-65073135D01*
X87112135Y-64984771D01*
X87168868Y-64873427D01*
X87171306Y-64858038D01*
X87172792Y-64848649D01*
X87183500Y-64781045D01*
X87183499Y-64438956D01*
X87183499Y-64438950D01*
X87174466Y-64381917D01*
X87183421Y-64312624D01*
X87209258Y-64274838D01*
X87298717Y-64185379D01*
X87298721Y-64185374D01*
X87381030Y-64046196D01*
X87426145Y-63890910D01*
X87426145Y-63890907D01*
X87428999Y-63854644D01*
X87428999Y-63845064D01*
X87448678Y-63778023D01*
X87501478Y-63732264D01*
X87570636Y-63722315D01*
X87634194Y-63751334D01*
G37*
%TD.AperFunction*%
%TA.AperFunction,Conductor*%
G36*
X80057075Y-69275993D02*
G01*
X80122901Y-69390007D01*
X80215993Y-69483099D01*
X80330007Y-69548925D01*
X80393590Y-69565962D01*
X79761282Y-70198269D01*
X79761282Y-70198270D01*
X79815449Y-70237624D01*
X79906496Y-70284015D01*
X79957292Y-70331989D01*
X79974087Y-70399810D01*
X79951550Y-70465945D01*
X79896835Y-70509397D01*
X79850202Y-70518500D01*
X79647936Y-70518500D01*
X79573698Y-70533266D01*
X79489515Y-70589515D01*
X79433266Y-70673699D01*
X79433264Y-70673703D01*
X79418500Y-70747928D01*
X79418500Y-72330335D01*
X79398815Y-72397374D01*
X79346011Y-72443129D01*
X79276853Y-72453073D01*
X79213297Y-72424048D01*
X79184015Y-72386629D01*
X79094861Y-72211652D01*
X79062474Y-72167077D01*
X79062474Y-72167076D01*
X78383000Y-72846551D01*
X78383000Y-72840339D01*
X78355741Y-72738606D01*
X78303080Y-72647394D01*
X78228606Y-72572920D01*
X78137394Y-72520259D01*
X78035661Y-72493000D01*
X78029446Y-72493000D01*
X78708922Y-71813524D01*
X78708921Y-71813523D01*
X78664359Y-71781147D01*
X78664350Y-71781141D01*
X78482031Y-71688244D01*
X78287417Y-71625009D01*
X78252825Y-71619531D01*
X78189690Y-71589602D01*
X78152759Y-71530290D01*
X78153757Y-71460428D01*
X78192367Y-71402195D01*
X78248032Y-71375441D01*
X78266313Y-71371804D01*
X78290586Y-71366976D01*
X78482493Y-71287486D01*
X78655204Y-71172083D01*
X78802083Y-71025204D01*
X78917486Y-70852493D01*
X78996976Y-70660586D01*
X79037500Y-70456859D01*
X79037500Y-70249141D01*
X79037500Y-70249138D01*
X79037499Y-70249136D01*
X79009143Y-70106581D01*
X78996976Y-70045414D01*
X78978978Y-70001964D01*
X78976841Y-69982089D01*
X78969856Y-69963360D01*
X78973183Y-69948063D01*
X78971510Y-69932498D01*
X78980458Y-69914620D01*
X78984708Y-69895087D01*
X79001391Y-69872800D01*
X79002784Y-69870019D01*
X79005831Y-69866861D01*
X79151079Y-69721613D01*
X79212400Y-69688130D01*
X79282092Y-69693114D01*
X79338025Y-69734986D01*
X79349243Y-69753001D01*
X79368375Y-69790550D01*
X79407728Y-69844716D01*
X80040036Y-69212407D01*
X80057075Y-69275993D01*
G37*
%TD.AperFunction*%
%TA.AperFunction,Conductor*%
G36*
X81734039Y-65038685D02*
G01*
X81779794Y-65091489D01*
X81791000Y-65143000D01*
X81791000Y-65831843D01*
X81930194Y-65791404D01*
X82068285Y-65709738D01*
X82068290Y-65709734D01*
X82169068Y-65608956D01*
X82230391Y-65575471D01*
X82286380Y-65578273D01*
X82286499Y-65577528D01*
X82293437Y-65578626D01*
X82295076Y-65578709D01*
X82296141Y-65579055D01*
X82387341Y-65593499D01*
X82387347Y-65593500D01*
X82718652Y-65593499D01*
X82809862Y-65579054D01*
X82919796Y-65523040D01*
X82975320Y-65467515D01*
X83036641Y-65434032D01*
X83106333Y-65439016D01*
X83150679Y-65467515D01*
X83206204Y-65523040D01*
X83316138Y-65579054D01*
X83316140Y-65579054D01*
X83316142Y-65579055D01*
X83407341Y-65593499D01*
X83407347Y-65593500D01*
X83732500Y-65593499D01*
X83741186Y-65596049D01*
X83750147Y-65594761D01*
X83774183Y-65605738D01*
X83799539Y-65613183D01*
X83805467Y-65620025D01*
X83813703Y-65623786D01*
X83827989Y-65646017D01*
X83845294Y-65665987D01*
X83847581Y-65676502D01*
X83851477Y-65682564D01*
X83856500Y-65717499D01*
X83856500Y-65887352D01*
X83836815Y-65954391D01*
X83784011Y-66000146D01*
X83714853Y-66010090D01*
X83707942Y-66008556D01*
X83707886Y-66008841D01*
X83575467Y-65982501D01*
X83575463Y-65982501D01*
X83446537Y-65982501D01*
X83446532Y-65982501D01*
X83320096Y-66007650D01*
X83320087Y-66007653D01*
X83200982Y-66056987D01*
X83200980Y-66056988D01*
X83093780Y-66128617D01*
X83093776Y-66128620D01*
X83002619Y-66219777D01*
X83002616Y-66219781D01*
X82930987Y-66326981D01*
X82930986Y-66326983D01*
X82881652Y-66446088D01*
X82881649Y-66446097D01*
X82856500Y-66572533D01*
X82856500Y-66703444D01*
X82836815Y-66770483D01*
X82820181Y-66791125D01*
X82155635Y-67455670D01*
X82094312Y-67489155D01*
X82024620Y-67484171D01*
X81980273Y-67455670D01*
X81956220Y-67431617D01*
X81956219Y-67431616D01*
X81956218Y-67431615D01*
X81849019Y-67359987D01*
X81849017Y-67359986D01*
X81729912Y-67310652D01*
X81729903Y-67310649D01*
X81603467Y-67285500D01*
X81603463Y-67285500D01*
X81474537Y-67285500D01*
X81474532Y-67285500D01*
X81348096Y-67310649D01*
X81348087Y-67310652D01*
X81228982Y-67359986D01*
X81228980Y-67359987D01*
X81121780Y-67431616D01*
X81121776Y-67431619D01*
X81030619Y-67522776D01*
X81030616Y-67522780D01*
X80958988Y-67629978D01*
X80936050Y-67685357D01*
X80892208Y-67739760D01*
X80825914Y-67761824D01*
X80802091Y-67760376D01*
X80629246Y-67733000D01*
X80416754Y-67733000D01*
X80206872Y-67766242D01*
X80206869Y-67766242D01*
X80004782Y-67831904D01*
X79815446Y-67928376D01*
X79685385Y-68022871D01*
X79619578Y-68046350D01*
X79551525Y-68030524D01*
X79502830Y-67980418D01*
X79488500Y-67922552D01*
X79488500Y-67533365D01*
X79508185Y-67466326D01*
X79524815Y-67445688D01*
X79782809Y-67187693D01*
X79782814Y-67187690D01*
X79793017Y-67177486D01*
X79793019Y-67177486D01*
X79863676Y-67106829D01*
X79913638Y-67020292D01*
X79939500Y-66923772D01*
X79939500Y-66538602D01*
X79959185Y-66471563D01*
X80011989Y-66425808D01*
X80081147Y-66415864D01*
X80132389Y-66435499D01*
X80210978Y-66488011D01*
X80210981Y-66488012D01*
X80210982Y-66488013D01*
X80272222Y-66513379D01*
X80330089Y-66537348D01*
X80330091Y-66537348D01*
X80330096Y-66537350D01*
X80456532Y-66562499D01*
X80456536Y-66562500D01*
X80456537Y-66562500D01*
X80585464Y-66562500D01*
X80585465Y-66562499D01*
X80627612Y-66554116D01*
X80711903Y-66537350D01*
X80711906Y-66537348D01*
X80711911Y-66537348D01*
X80831022Y-66488011D01*
X80938220Y-66416383D01*
X81029383Y-66325220D01*
X81101011Y-66218022D01*
X81150348Y-66098911D01*
X81151707Y-66092083D01*
X81166076Y-66019840D01*
X81175500Y-65972463D01*
X81175500Y-65972444D01*
X81176204Y-65968627D01*
X81179062Y-65957962D01*
X81179062Y-65953133D01*
X81181118Y-65941987D01*
X81191970Y-65920514D01*
X81198747Y-65897437D01*
X81207442Y-65889902D01*
X81212635Y-65879629D01*
X81233373Y-65867432D01*
X81251551Y-65851682D01*
X81262941Y-65850044D01*
X81272862Y-65844210D01*
X81274447Y-65844272D01*
X81291000Y-65831844D01*
X81291000Y-65143000D01*
X81310685Y-65075961D01*
X81363489Y-65030206D01*
X81415000Y-65019000D01*
X81667000Y-65019000D01*
X81734039Y-65038685D01*
G37*
%TD.AperFunction*%
%TA.AperFunction,Conductor*%
G36*
X79035782Y-60770406D02*
G01*
X79040601Y-60774974D01*
X79107210Y-60841583D01*
X79107213Y-60841585D01*
X79107216Y-60841588D01*
X79205002Y-60891412D01*
X79217857Y-60897962D01*
X79309645Y-60912499D01*
X79309651Y-60912500D01*
X80571348Y-60912499D01*
X80663145Y-60897961D01*
X80680395Y-60889171D01*
X80749061Y-60876274D01*
X80813802Y-60902548D01*
X80824372Y-60911975D01*
X80867776Y-60955380D01*
X80867780Y-60955383D01*
X80974978Y-61027011D01*
X81068876Y-61065904D01*
X81123277Y-61109743D01*
X81145343Y-61176036D01*
X81131907Y-61236758D01*
X81088037Y-61322857D01*
X81073500Y-61414645D01*
X81073500Y-61542000D01*
X81053815Y-61609039D01*
X81001011Y-61654794D01*
X80949500Y-61666000D01*
X80366776Y-61666000D01*
X80270256Y-61691862D01*
X80270253Y-61691863D01*
X80183722Y-61741821D01*
X80183717Y-61741825D01*
X79491325Y-62434217D01*
X79491321Y-62434222D01*
X79442845Y-62518186D01*
X79442844Y-62518187D01*
X79441362Y-62520756D01*
X79441362Y-62520757D01*
X79415499Y-62617276D01*
X79415499Y-62717200D01*
X79415500Y-62717203D01*
X79415500Y-62734988D01*
X79415500Y-63252443D01*
X79395815Y-63319482D01*
X79379181Y-63340124D01*
X78469165Y-64250139D01*
X78407842Y-64283624D01*
X78338150Y-64278640D01*
X78334033Y-64277020D01*
X78290588Y-64259025D01*
X78290586Y-64259024D01*
X78290584Y-64259023D01*
X78290583Y-64259023D01*
X78290578Y-64259021D01*
X78086862Y-64218500D01*
X78086859Y-64218500D01*
X77879141Y-64218500D01*
X77879138Y-64218500D01*
X77675421Y-64259022D01*
X77675409Y-64259025D01*
X77483511Y-64338511D01*
X77483509Y-64338512D01*
X77310796Y-64453916D01*
X77310792Y-64453919D01*
X77225181Y-64539531D01*
X77163858Y-64573016D01*
X77094166Y-64568032D01*
X77038233Y-64526160D01*
X77013816Y-64460696D01*
X77013500Y-64451850D01*
X77013500Y-63554150D01*
X77033185Y-63487111D01*
X77085989Y-63441356D01*
X77155147Y-63431412D01*
X77218703Y-63460437D01*
X77225181Y-63466469D01*
X77310792Y-63552080D01*
X77310796Y-63552083D01*
X77483507Y-63667486D01*
X77483508Y-63667486D01*
X77483509Y-63667487D01*
X77483511Y-63667488D01*
X77639896Y-63732264D01*
X77675414Y-63746976D01*
X77869856Y-63785653D01*
X77879136Y-63787499D01*
X77879139Y-63787500D01*
X77879141Y-63787500D01*
X78086861Y-63787500D01*
X78086862Y-63787499D01*
X78290586Y-63746976D01*
X78482493Y-63667486D01*
X78655204Y-63552083D01*
X78802083Y-63405204D01*
X78917486Y-63232493D01*
X78996976Y-63040586D01*
X79037500Y-62836859D01*
X79037500Y-62629141D01*
X79037500Y-62629138D01*
X79037499Y-62629136D01*
X79035038Y-62616764D01*
X78996976Y-62425414D01*
X78971356Y-62363562D01*
X78917488Y-62233511D01*
X78917487Y-62233509D01*
X78911801Y-62225000D01*
X78802083Y-62060796D01*
X78802080Y-62060792D01*
X78655207Y-61913919D01*
X78655203Y-61913916D01*
X78482490Y-61798512D01*
X78482488Y-61798511D01*
X78290590Y-61719025D01*
X78290578Y-61719022D01*
X78086862Y-61678500D01*
X78086859Y-61678500D01*
X77879141Y-61678500D01*
X77879138Y-61678500D01*
X77675421Y-61719022D01*
X77675409Y-61719025D01*
X77483511Y-61798511D01*
X77483509Y-61798512D01*
X77310796Y-61913916D01*
X77310792Y-61913919D01*
X77225181Y-61999531D01*
X77163858Y-62033016D01*
X77094166Y-62028032D01*
X77038233Y-61986160D01*
X77013816Y-61920696D01*
X77013500Y-61911850D01*
X77013500Y-61014150D01*
X77033185Y-60947111D01*
X77085989Y-60901356D01*
X77155147Y-60891412D01*
X77218703Y-60920437D01*
X77225181Y-60926469D01*
X77310792Y-61012080D01*
X77310796Y-61012083D01*
X77483507Y-61127486D01*
X77483508Y-61127486D01*
X77483509Y-61127487D01*
X77483511Y-61127488D01*
X77675409Y-61206974D01*
X77675414Y-61206976D01*
X77825138Y-61236758D01*
X77879136Y-61247499D01*
X77879139Y-61247500D01*
X77879141Y-61247500D01*
X78086861Y-61247500D01*
X78086862Y-61247499D01*
X78290586Y-61206976D01*
X78482493Y-61127486D01*
X78655204Y-61012083D01*
X78802083Y-60865204D01*
X78849818Y-60793763D01*
X78903430Y-60748959D01*
X78972755Y-60740252D01*
X79035782Y-60770406D01*
G37*
%TD.AperFunction*%
%TA.AperFunction,Conductor*%
G36*
X88608706Y-60195109D02*
G01*
X88629348Y-60211743D01*
X89025566Y-60607961D01*
X89316764Y-60899158D01*
X89330244Y-60923846D01*
X89346454Y-60946839D01*
X89346765Y-60954101D01*
X89350249Y-60960481D01*
X89348242Y-60988537D01*
X89349448Y-61016644D01*
X89345783Y-61022922D01*
X89345265Y-61030172D01*
X89328406Y-61052692D01*
X89314226Y-61076987D01*
X89305744Y-61082966D01*
X89303394Y-61086106D01*
X89285380Y-61097323D01*
X89259296Y-61110614D01*
X89190627Y-61123511D01*
X89146707Y-61110616D01*
X89063145Y-61068039D01*
X89063143Y-61068038D01*
X89063140Y-61068037D01*
X88971354Y-61053500D01*
X88634652Y-61053500D01*
X88542852Y-61068039D01*
X88459294Y-61110615D01*
X88390624Y-61123511D01*
X88346707Y-61110616D01*
X88263145Y-61068039D01*
X88263143Y-61068038D01*
X88263140Y-61068037D01*
X88171354Y-61053500D01*
X87834652Y-61053500D01*
X87742852Y-61068039D01*
X87659294Y-61110615D01*
X87590624Y-61123511D01*
X87546707Y-61110616D01*
X87463145Y-61068039D01*
X87463143Y-61068038D01*
X87463140Y-61068037D01*
X87371354Y-61053500D01*
X87034652Y-61053500D01*
X86942852Y-61068039D01*
X86859294Y-61110615D01*
X86790624Y-61123511D01*
X86746707Y-61110616D01*
X86663145Y-61068039D01*
X86663143Y-61068038D01*
X86663140Y-61068037D01*
X86571354Y-61053500D01*
X86301424Y-61053500D01*
X86234385Y-61033815D01*
X86213742Y-61017181D01*
X86134335Y-60937773D01*
X86134331Y-60937770D01*
X85995692Y-60855780D01*
X85995689Y-60855778D01*
X85853001Y-60814323D01*
X85853000Y-60814324D01*
X85853000Y-63400000D01*
X86495000Y-63400000D01*
X86562039Y-63419685D01*
X86607794Y-63472489D01*
X86619000Y-63524000D01*
X86619000Y-63776000D01*
X86599315Y-63843039D01*
X86546511Y-63888794D01*
X86495000Y-63900000D01*
X85814495Y-63900000D01*
X85836838Y-63976905D01*
X85836639Y-64046775D01*
X85798697Y-64105445D01*
X85735058Y-64134288D01*
X85717762Y-64135500D01*
X85433621Y-64135500D01*
X85366582Y-64115815D01*
X85320827Y-64063011D01*
X85310883Y-63993853D01*
X85323136Y-63955206D01*
X85338518Y-63925016D01*
X85363054Y-63876862D01*
X85363054Y-63876860D01*
X85363055Y-63876859D01*
X85377207Y-63787500D01*
X85377500Y-63785653D01*
X85377499Y-63454348D01*
X85363054Y-63363138D01*
X85363053Y-63363136D01*
X85360039Y-63353860D01*
X85362466Y-63353071D01*
X85353000Y-63313637D01*
X85353000Y-60989303D01*
X85372685Y-60922264D01*
X85373898Y-60920412D01*
X85433010Y-60831946D01*
X85482347Y-60712835D01*
X85486394Y-60692493D01*
X85507498Y-60586391D01*
X85507499Y-60586388D01*
X85507499Y-60457460D01*
X85507498Y-60457456D01*
X85481159Y-60325038D01*
X85483591Y-60324554D01*
X85483052Y-60265578D01*
X85520288Y-60206457D01*
X85583576Y-60176853D01*
X85602344Y-60175424D01*
X88541667Y-60175424D01*
X88608706Y-60195109D01*
G37*
%TD.AperFunction*%
%TA.AperFunction,Conductor*%
G36*
X92276630Y-60764736D02*
G01*
X92284467Y-60763467D01*
X92309674Y-60774439D01*
X92336052Y-60782185D01*
X92342882Y-60788894D01*
X92348530Y-60791353D01*
X92372115Y-60817610D01*
X92403913Y-60865199D01*
X92403919Y-60865207D01*
X92550792Y-61012080D01*
X92550796Y-61012083D01*
X92723507Y-61127486D01*
X92723508Y-61127486D01*
X92723509Y-61127487D01*
X92723511Y-61127488D01*
X92915409Y-61206974D01*
X92915414Y-61206976D01*
X93065138Y-61236758D01*
X93119136Y-61247499D01*
X93119139Y-61247500D01*
X93119141Y-61247500D01*
X93326861Y-61247500D01*
X93326862Y-61247499D01*
X93530586Y-61206976D01*
X93722493Y-61127486D01*
X93895204Y-61012083D01*
X93927861Y-60979426D01*
X93980819Y-60926469D01*
X94042142Y-60892984D01*
X94111834Y-60897968D01*
X94167767Y-60939840D01*
X94192184Y-61005304D01*
X94192500Y-61014150D01*
X94192500Y-61911850D01*
X94172815Y-61978889D01*
X94120011Y-62024644D01*
X94050853Y-62034588D01*
X93987297Y-62005563D01*
X93980819Y-61999531D01*
X93895207Y-61913919D01*
X93895203Y-61913916D01*
X93722490Y-61798512D01*
X93722488Y-61798511D01*
X93530590Y-61719025D01*
X93530578Y-61719022D01*
X93326862Y-61678500D01*
X93326859Y-61678500D01*
X93119141Y-61678500D01*
X93119138Y-61678500D01*
X92915421Y-61719022D01*
X92915409Y-61719025D01*
X92723511Y-61798511D01*
X92723504Y-61798515D01*
X92572353Y-61899511D01*
X92505676Y-61920389D01*
X92438296Y-61901904D01*
X92391606Y-61849925D01*
X92384387Y-61831004D01*
X92375033Y-61798809D01*
X92375031Y-61798804D01*
X92292721Y-61659625D01*
X92292714Y-61659616D01*
X92178383Y-61545285D01*
X92178374Y-61545278D01*
X92039193Y-61462967D01*
X92039190Y-61462965D01*
X91893001Y-61420493D01*
X91893000Y-61420494D01*
X91893000Y-62101000D01*
X91873315Y-62168039D01*
X91820511Y-62213794D01*
X91769000Y-62225000D01*
X91517000Y-62225000D01*
X91449961Y-62205315D01*
X91404206Y-62152511D01*
X91393000Y-62101000D01*
X91393000Y-61420494D01*
X91392998Y-61420493D01*
X91307777Y-61445253D01*
X91237908Y-61445054D01*
X91179238Y-61407112D01*
X91156702Y-61364501D01*
X91156227Y-61364698D01*
X91154136Y-61359649D01*
X91153408Y-61358273D01*
X91153119Y-61357194D01*
X91086700Y-61242154D01*
X90992770Y-61148224D01*
X90968725Y-61124179D01*
X90935241Y-61062857D01*
X90940225Y-60993165D01*
X90982097Y-60937232D01*
X91047561Y-60912815D01*
X91056407Y-60912499D01*
X91896347Y-60912499D01*
X91896348Y-60912499D01*
X91988145Y-60897961D01*
X92098784Y-60841588D01*
X92141552Y-60798820D01*
X92202875Y-60765334D01*
X92229234Y-60762500D01*
X92269013Y-60762500D01*
X92276630Y-60764736D01*
G37*
%TD.AperFunction*%
%TA.AperFunction,Conductor*%
G36*
X87659288Y-51655382D02*
G01*
X87742855Y-51697961D01*
X87742857Y-51697961D01*
X87742859Y-51697962D01*
X87814832Y-51709361D01*
X87834638Y-51712498D01*
X87834645Y-51712499D01*
X87834651Y-51712500D01*
X88171348Y-51712499D01*
X88171353Y-51712499D01*
X88171353Y-51712498D01*
X88216748Y-51705309D01*
X88247708Y-51700406D01*
X88317001Y-51709361D01*
X88370453Y-51754357D01*
X88374489Y-51760873D01*
X88399299Y-51803846D01*
X88908154Y-52312701D01*
X88908156Y-52312702D01*
X88908160Y-52312705D01*
X89007400Y-52370001D01*
X89007401Y-52370001D01*
X89023194Y-52379119D01*
X89151505Y-52413500D01*
X89448500Y-52413500D01*
X89515539Y-52433185D01*
X89561294Y-52485989D01*
X89572500Y-52537500D01*
X89572500Y-57354500D01*
X89552815Y-57421539D01*
X89500011Y-57467294D01*
X89448500Y-57478500D01*
X89168581Y-57478500D01*
X89091594Y-57499128D01*
X89040268Y-57512881D01*
X89040267Y-57512882D01*
X88925233Y-57579296D01*
X88925228Y-57579300D01*
X88399300Y-58105228D01*
X88399298Y-58105231D01*
X88357443Y-58177728D01*
X88357442Y-58177729D01*
X88332882Y-58220267D01*
X88332881Y-58220268D01*
X88315690Y-58284425D01*
X88298500Y-58348581D01*
X88298500Y-58348583D01*
X88298500Y-59042424D01*
X88278815Y-59109463D01*
X88226011Y-59155218D01*
X88174500Y-59166424D01*
X84407657Y-59166424D01*
X84279346Y-59200805D01*
X84279344Y-59200805D01*
X84279344Y-59200806D01*
X84259580Y-59212215D01*
X84259581Y-59212216D01*
X84164309Y-59267220D01*
X84164304Y-59267224D01*
X83599298Y-59832230D01*
X83578626Y-59868038D01*
X83578625Y-59868039D01*
X83532882Y-59947267D01*
X83532881Y-59947268D01*
X83516102Y-60009891D01*
X83498500Y-60075581D01*
X83498500Y-60075583D01*
X83498500Y-60929500D01*
X83478815Y-60996539D01*
X83426011Y-61042294D01*
X83374500Y-61053500D01*
X83034652Y-61053500D01*
X82942852Y-61068039D01*
X82859294Y-61110615D01*
X82790624Y-61123511D01*
X82746707Y-61110616D01*
X82663145Y-61068039D01*
X82663143Y-61068038D01*
X82663140Y-61068037D01*
X82571354Y-61053500D01*
X82234652Y-61053500D01*
X82142852Y-61068039D01*
X82059294Y-61110615D01*
X82056260Y-61111184D01*
X82053918Y-61113193D01*
X82022145Y-61117591D01*
X81990624Y-61123511D01*
X81986844Y-61122478D01*
X81984708Y-61122774D01*
X81965838Y-61116737D01*
X81950896Y-61112653D01*
X81948807Y-61111686D01*
X81863145Y-61068039D01*
X81850075Y-61065969D01*
X81834416Y-61058718D01*
X81820589Y-61046609D01*
X81803985Y-61038738D01*
X81794852Y-61024069D01*
X81781853Y-61012686D01*
X81776768Y-60995026D01*
X81767055Y-60979426D01*
X81767301Y-60962148D01*
X81762521Y-60945544D01*
X81767790Y-60927940D01*
X81768053Y-60909563D01*
X81779861Y-60887615D01*
X81782557Y-60878609D01*
X81786547Y-60875188D01*
X81790671Y-60867523D01*
X81793374Y-60864228D01*
X81793383Y-60864220D01*
X81865011Y-60757022D01*
X81914348Y-60637911D01*
X81920306Y-60607961D01*
X81939499Y-60511467D01*
X81939500Y-60511464D01*
X81939500Y-60382536D01*
X81939499Y-60382532D01*
X81914350Y-60256096D01*
X81914348Y-60256091D01*
X81914348Y-60256089D01*
X81894948Y-60209254D01*
X81887480Y-60139787D01*
X81918755Y-60077308D01*
X81940619Y-60058702D01*
X81960605Y-60045347D01*
X82018449Y-60006697D01*
X82109612Y-59915534D01*
X82181240Y-59808336D01*
X82230577Y-59689225D01*
X82255729Y-59562777D01*
X82255729Y-59433851D01*
X82255020Y-59430287D01*
X82230579Y-59307410D01*
X82230576Y-59307401D01*
X82183159Y-59192924D01*
X82175690Y-59123455D01*
X82206966Y-59060976D01*
X82228828Y-59042370D01*
X82243745Y-59032404D01*
X82334908Y-58941241D01*
X82406536Y-58834043D01*
X82455873Y-58714932D01*
X82457352Y-58707500D01*
X82476568Y-58610890D01*
X82481025Y-58588484D01*
X82481025Y-58459558D01*
X82470593Y-58407111D01*
X82455875Y-58333117D01*
X82455872Y-58333108D01*
X82406538Y-58214003D01*
X82406537Y-58214001D01*
X82334908Y-58106801D01*
X82334905Y-58106797D01*
X82243748Y-58015640D01*
X82243744Y-58015637D01*
X82136544Y-57944008D01*
X82136542Y-57944007D01*
X82017437Y-57894673D01*
X82017428Y-57894670D01*
X81890992Y-57869521D01*
X81890988Y-57869521D01*
X81762062Y-57869521D01*
X81762057Y-57869521D01*
X81635621Y-57894670D01*
X81635612Y-57894673D01*
X81516507Y-57944007D01*
X81516505Y-57944008D01*
X81409305Y-58015637D01*
X81409301Y-58015640D01*
X81316740Y-58108202D01*
X81289812Y-58122905D01*
X81263994Y-58139498D01*
X81257793Y-58140389D01*
X81255417Y-58141687D01*
X81229059Y-58144521D01*
X81056500Y-58144521D01*
X80989461Y-58124836D01*
X80943706Y-58072032D01*
X80932500Y-58020522D01*
X80932499Y-57814652D01*
X80917961Y-57722855D01*
X80917960Y-57722853D01*
X80917960Y-57722852D01*
X80917958Y-57722847D01*
X80875385Y-57639294D01*
X80862488Y-57570625D01*
X80875383Y-57526709D01*
X80917961Y-57443145D01*
X80932500Y-57351349D01*
X80932499Y-57014652D01*
X80917961Y-56922855D01*
X80917960Y-56922853D01*
X80917960Y-56922852D01*
X80917958Y-56922847D01*
X80875385Y-56839294D01*
X80862488Y-56770625D01*
X80875383Y-56726709D01*
X80917961Y-56643145D01*
X80922258Y-56616019D01*
X80932499Y-56551354D01*
X80932500Y-56551349D01*
X80932499Y-56214652D01*
X80917961Y-56122855D01*
X80917960Y-56122853D01*
X80917960Y-56122852D01*
X80917958Y-56122847D01*
X80875385Y-56039294D01*
X80862488Y-55970625D01*
X80875383Y-55926709D01*
X80917961Y-55843145D01*
X80919697Y-55832188D01*
X80932499Y-55751354D01*
X80932500Y-55751349D01*
X80932499Y-55481424D01*
X80952183Y-55414386D01*
X80968818Y-55393743D01*
X81048226Y-55314335D01*
X81048229Y-55314331D01*
X81130218Y-55175695D01*
X81130218Y-55175694D01*
X81171674Y-55033000D01*
X80064500Y-55033000D01*
X79997461Y-55013315D01*
X79951706Y-54960511D01*
X79940500Y-54909000D01*
X79940500Y-54657000D01*
X79960185Y-54589961D01*
X80012989Y-54544206D01*
X80064500Y-54533000D01*
X81171674Y-54533000D01*
X81130218Y-54390305D01*
X81130218Y-54390304D01*
X81048229Y-54251668D01*
X81048223Y-54251660D01*
X80968818Y-54172255D01*
X80935333Y-54110932D01*
X80932499Y-54084581D01*
X80932499Y-53814652D01*
X80917961Y-53722855D01*
X80917960Y-53722853D01*
X80917960Y-53722852D01*
X80917958Y-53722847D01*
X80875385Y-53639294D01*
X80862488Y-53570625D01*
X80875383Y-53526709D01*
X80917961Y-53443145D01*
X80932500Y-53351349D01*
X80932499Y-53014652D01*
X80917961Y-52922855D01*
X80917960Y-52922853D01*
X80917960Y-52922852D01*
X80917958Y-52922847D01*
X80875385Y-52839294D01*
X80862488Y-52770625D01*
X80875383Y-52726709D01*
X80917961Y-52643145D01*
X80932500Y-52551349D01*
X80932499Y-52314499D01*
X80952183Y-52247461D01*
X81004987Y-52201706D01*
X81056499Y-52190500D01*
X81859332Y-52190500D01*
X81859336Y-52190501D01*
X81959260Y-52190501D01*
X82035382Y-52170103D01*
X82055780Y-52164638D01*
X82142317Y-52114676D01*
X82212974Y-52044019D01*
X82212974Y-52044017D01*
X82223178Y-52033814D01*
X82223182Y-52033809D01*
X82510949Y-51746041D01*
X82559555Y-51716041D01*
X82570223Y-51712499D01*
X82571348Y-51712499D01*
X82663145Y-51697961D01*
X82755050Y-51651133D01*
X82763927Y-51648186D01*
X82789866Y-51647278D01*
X82815373Y-51642488D01*
X82827235Y-51645971D01*
X82833754Y-51645743D01*
X82840876Y-51649976D01*
X82859288Y-51655382D01*
X82942855Y-51697961D01*
X82942857Y-51697961D01*
X82942859Y-51697962D01*
X83014832Y-51709361D01*
X83034638Y-51712498D01*
X83034645Y-51712499D01*
X83034651Y-51712500D01*
X83371348Y-51712499D01*
X83463145Y-51697961D01*
X83546706Y-51655384D01*
X83615373Y-51642488D01*
X83659288Y-51655382D01*
X83742855Y-51697961D01*
X83742857Y-51697961D01*
X83742859Y-51697962D01*
X83814832Y-51709361D01*
X83834638Y-51712498D01*
X83834645Y-51712499D01*
X83834651Y-51712500D01*
X84171348Y-51712499D01*
X84263145Y-51697961D01*
X84346706Y-51655384D01*
X84415373Y-51642488D01*
X84459288Y-51655382D01*
X84542855Y-51697961D01*
X84542857Y-51697961D01*
X84542859Y-51697962D01*
X84614832Y-51709361D01*
X84634638Y-51712498D01*
X84634645Y-51712499D01*
X84634651Y-51712500D01*
X84971348Y-51712499D01*
X85063145Y-51697961D01*
X85146706Y-51655384D01*
X85215373Y-51642488D01*
X85259288Y-51655382D01*
X85342855Y-51697961D01*
X85342857Y-51697961D01*
X85342859Y-51697962D01*
X85414832Y-51709361D01*
X85434638Y-51712498D01*
X85434645Y-51712499D01*
X85434651Y-51712500D01*
X85771348Y-51712499D01*
X85863145Y-51697961D01*
X85946706Y-51655384D01*
X86015373Y-51642488D01*
X86059288Y-51655382D01*
X86142855Y-51697961D01*
X86142857Y-51697961D01*
X86142859Y-51697962D01*
X86214832Y-51709361D01*
X86234638Y-51712498D01*
X86234645Y-51712499D01*
X86234651Y-51712500D01*
X86571348Y-51712499D01*
X86663145Y-51697961D01*
X86746706Y-51655384D01*
X86815373Y-51642488D01*
X86859288Y-51655382D01*
X86942855Y-51697961D01*
X86942857Y-51697961D01*
X86942859Y-51697962D01*
X87014832Y-51709361D01*
X87034638Y-51712498D01*
X87034645Y-51712499D01*
X87034651Y-51712500D01*
X87371348Y-51712499D01*
X87463145Y-51697961D01*
X87546706Y-51655384D01*
X87615373Y-51642488D01*
X87659288Y-51655382D01*
G37*
%TD.AperFunction*%
%TA.AperFunction,Conductor*%
G36*
X94111834Y-58357968D02*
G01*
X94167767Y-58399840D01*
X94192184Y-58465304D01*
X94192500Y-58474150D01*
X94192500Y-59371850D01*
X94172815Y-59438889D01*
X94120011Y-59484644D01*
X94050853Y-59494588D01*
X93987297Y-59465563D01*
X93980819Y-59459531D01*
X93895207Y-59373919D01*
X93895203Y-59373916D01*
X93722490Y-59258512D01*
X93722488Y-59258511D01*
X93530590Y-59179025D01*
X93530578Y-59179022D01*
X93326862Y-59138500D01*
X93326859Y-59138500D01*
X93119141Y-59138500D01*
X93119138Y-59138500D01*
X92915421Y-59179022D01*
X92915409Y-59179025D01*
X92723511Y-59258511D01*
X92723504Y-59258515D01*
X92643620Y-59311892D01*
X92576943Y-59332770D01*
X92509563Y-59314285D01*
X92462873Y-59262306D01*
X92451697Y-59193336D01*
X92455654Y-59174195D01*
X92496674Y-59033000D01*
X90034324Y-59033000D01*
X90020626Y-59051244D01*
X89964632Y-59093035D01*
X89945659Y-59098408D01*
X89882560Y-59110959D01*
X89882554Y-59110961D01*
X89763449Y-59160295D01*
X89763447Y-59160296D01*
X89656247Y-59231925D01*
X89656243Y-59231928D01*
X89565086Y-59323085D01*
X89565083Y-59323089D01*
X89534602Y-59368708D01*
X89480990Y-59413513D01*
X89411665Y-59422220D01*
X89348637Y-59392066D01*
X89311918Y-59332623D01*
X89307500Y-59299817D01*
X89307500Y-58675333D01*
X89316144Y-58645892D01*
X89322668Y-58615906D01*
X89326422Y-58610890D01*
X89327185Y-58608294D01*
X89343819Y-58587652D01*
X89407652Y-58523819D01*
X89468975Y-58490334D01*
X89495333Y-58487500D01*
X89938203Y-58487500D01*
X90005242Y-58507185D01*
X90033010Y-58533000D01*
X92513875Y-58533000D01*
X92530734Y-58520416D01*
X92600433Y-58515529D01*
X92642792Y-58533553D01*
X92723507Y-58587486D01*
X92723510Y-58587487D01*
X92723513Y-58587489D01*
X92864512Y-58645892D01*
X92915414Y-58666976D01*
X93084910Y-58700691D01*
X93119136Y-58707499D01*
X93119139Y-58707500D01*
X93119141Y-58707500D01*
X93326861Y-58707500D01*
X93326862Y-58707499D01*
X93530586Y-58666976D01*
X93722493Y-58587486D01*
X93895204Y-58472083D01*
X93925699Y-58441588D01*
X93980819Y-58386469D01*
X94042142Y-58352984D01*
X94111834Y-58357968D01*
G37*
%TD.AperFunction*%
%TA.AperFunction,Conductor*%
G36*
X90329379Y-51029159D02*
G01*
X90336225Y-51034132D01*
X90336227Y-51034133D01*
X90336229Y-51034135D01*
X90447573Y-51090868D01*
X90447574Y-51090868D01*
X90447576Y-51090869D01*
X90482917Y-51096466D01*
X90539955Y-51105500D01*
X90882044Y-51105499D01*
X90882049Y-51105499D01*
X90882049Y-51105498D01*
X90899968Y-51102660D01*
X90939083Y-51096466D01*
X91008376Y-51105421D01*
X91046162Y-51131258D01*
X91135620Y-51220717D01*
X91135625Y-51220721D01*
X91226102Y-51274229D01*
X91273786Y-51325298D01*
X91286289Y-51394040D01*
X91259644Y-51458629D01*
X91250662Y-51468642D01*
X91036189Y-51683115D01*
X91036183Y-51683121D01*
X91032483Y-51686822D01*
X91032481Y-51686824D01*
X90961824Y-51757481D01*
X90936674Y-51801041D01*
X90929561Y-51809471D01*
X90909242Y-51822906D01*
X90891614Y-51839716D01*
X90879310Y-51842700D01*
X90871282Y-51848010D01*
X90856636Y-51848201D01*
X90834796Y-51853500D01*
X90634652Y-51853500D01*
X90542846Y-51868040D01*
X90535599Y-51870395D01*
X90465757Y-51872383D01*
X90409612Y-51840141D01*
X90145857Y-51576386D01*
X90112372Y-51515063D01*
X90115610Y-51450378D01*
X90117958Y-51443150D01*
X90117961Y-51443145D01*
X90132500Y-51351349D01*
X90132499Y-51129479D01*
X90152183Y-51062442D01*
X90204987Y-51016687D01*
X90274145Y-51006743D01*
X90329379Y-51029159D01*
G37*
%TD.AperFunction*%
%TA.AperFunction,Conductor*%
G36*
X92206417Y-46856113D02*
G01*
X92262350Y-46897985D01*
X92286767Y-46963449D01*
X92277644Y-47019747D01*
X92209025Y-47185409D01*
X92209022Y-47185421D01*
X92168500Y-47389136D01*
X92168500Y-47596863D01*
X92209022Y-47800578D01*
X92209025Y-47800590D01*
X92288511Y-47992488D01*
X92288512Y-47992490D01*
X92403916Y-48165203D01*
X92403919Y-48165207D01*
X92550792Y-48312080D01*
X92550796Y-48312083D01*
X92723507Y-48427486D01*
X92723508Y-48427486D01*
X92723509Y-48427487D01*
X92723511Y-48427488D01*
X92915409Y-48506974D01*
X92915414Y-48506976D01*
X93119136Y-48547499D01*
X93119139Y-48547500D01*
X93119141Y-48547500D01*
X93326861Y-48547500D01*
X93326862Y-48547499D01*
X93530586Y-48506976D01*
X93722493Y-48427486D01*
X93895204Y-48312083D01*
X93936471Y-48270816D01*
X93980819Y-48226469D01*
X94042142Y-48192984D01*
X94111834Y-48197968D01*
X94167767Y-48239840D01*
X94192184Y-48305304D01*
X94192500Y-48314150D01*
X94192500Y-49211850D01*
X94172815Y-49278889D01*
X94120011Y-49324644D01*
X94050853Y-49334588D01*
X93987297Y-49305563D01*
X93980819Y-49299531D01*
X93895207Y-49213919D01*
X93895203Y-49213916D01*
X93722490Y-49098512D01*
X93722488Y-49098511D01*
X93530590Y-49019025D01*
X93530578Y-49019022D01*
X93326862Y-48978500D01*
X93326859Y-48978500D01*
X93119141Y-48978500D01*
X93119138Y-48978500D01*
X92915421Y-49019022D01*
X92915409Y-49019025D01*
X92723511Y-49098511D01*
X92723509Y-49098512D01*
X92550796Y-49213916D01*
X92550792Y-49213919D01*
X92403919Y-49360792D01*
X92403916Y-49360796D01*
X92288512Y-49533509D01*
X92216491Y-49707385D01*
X92172650Y-49761788D01*
X92106356Y-49783853D01*
X92067335Y-49779008D01*
X91921001Y-49736493D01*
X91921000Y-49736494D01*
X91921000Y-50417000D01*
X91901315Y-50484039D01*
X91848511Y-50529794D01*
X91797000Y-50541000D01*
X91545000Y-50541000D01*
X91477961Y-50521315D01*
X91432206Y-50468511D01*
X91421000Y-50417000D01*
X91421000Y-49736494D01*
X91420998Y-49736493D01*
X91374095Y-49750120D01*
X91304225Y-49749921D01*
X91245555Y-49711979D01*
X91216712Y-49648340D01*
X91215500Y-49631044D01*
X91215500Y-49232583D01*
X91215500Y-49232581D01*
X91200243Y-49175641D01*
X91201906Y-49105795D01*
X91229213Y-49060997D01*
X91229089Y-49060904D01*
X91230065Y-49059599D01*
X91232342Y-49055865D01*
X91234396Y-49053809D01*
X91234404Y-49053804D01*
X91321342Y-48937667D01*
X91372040Y-48801742D01*
X91376246Y-48762619D01*
X91378499Y-48741671D01*
X91378499Y-48741664D01*
X91378500Y-48741655D01*
X91378499Y-47730146D01*
X91372040Y-47670058D01*
X91359424Y-47636235D01*
X91354439Y-47566546D01*
X91387923Y-47505222D01*
X91443516Y-47473126D01*
X91452806Y-47470638D01*
X91539343Y-47420676D01*
X91610000Y-47350019D01*
X91610000Y-47350017D01*
X91620204Y-47339814D01*
X91620208Y-47339809D01*
X92075404Y-46884612D01*
X92136725Y-46851129D01*
X92206417Y-46856113D01*
G37*
%TD.AperFunction*%
%TA.AperFunction,Conductor*%
G36*
X86045508Y-43813992D02*
G01*
X86071826Y-43817853D01*
X86078517Y-43823684D01*
X86087032Y-43826185D01*
X86104447Y-43846283D01*
X86124499Y-43863759D01*
X86129882Y-43875637D01*
X86132787Y-43878989D01*
X86139069Y-43895905D01*
X86148680Y-43928987D01*
X86148682Y-43928992D01*
X86229641Y-44065887D01*
X86229648Y-44065896D01*
X86342103Y-44178351D01*
X86342107Y-44178354D01*
X86342109Y-44178356D01*
X86376828Y-44198889D01*
X86388988Y-44206080D01*
X86436671Y-44257149D01*
X86449175Y-44325890D01*
X86422530Y-44390480D01*
X86380962Y-44423900D01*
X86256974Y-44485392D01*
X86108633Y-44604632D01*
X86108632Y-44604633D01*
X85989392Y-44752974D01*
X85989390Y-44752977D01*
X85904831Y-44923476D01*
X85858897Y-45108175D01*
X85856000Y-45150903D01*
X85856000Y-45352000D01*
X87232000Y-45352000D01*
X87299039Y-45371685D01*
X87344794Y-45424489D01*
X87356000Y-45476000D01*
X87356000Y-45728000D01*
X87336315Y-45795039D01*
X87283511Y-45840794D01*
X87232000Y-45852000D01*
X85856000Y-45852000D01*
X85856000Y-46053096D01*
X85858897Y-46095824D01*
X85904831Y-46280523D01*
X85989390Y-46451022D01*
X85989392Y-46451025D01*
X86108632Y-46599366D01*
X86108633Y-46599367D01*
X86206274Y-46677853D01*
X86246193Y-46735196D01*
X86248773Y-46805018D01*
X86213195Y-46865151D01*
X86150754Y-46896503D01*
X86128587Y-46898500D01*
X84866579Y-46898500D01*
X84807705Y-46914275D01*
X84775614Y-46918500D01*
X84677348Y-46918500D01*
X84586136Y-46932946D01*
X84526272Y-46963449D01*
X84476204Y-46988960D01*
X84476203Y-46988961D01*
X84476198Y-46988964D01*
X84420681Y-47044482D01*
X84359358Y-47077967D01*
X84289666Y-47072983D01*
X84245319Y-47044482D01*
X84189801Y-46988964D01*
X84189797Y-46988961D01*
X84189796Y-46988960D01*
X84079862Y-46932946D01*
X84079860Y-46932945D01*
X84079857Y-46932944D01*
X83988658Y-46918500D01*
X83657348Y-46918500D01*
X83566136Y-46932946D01*
X83506272Y-46963449D01*
X83456204Y-46988960D01*
X83456203Y-46988961D01*
X83456198Y-46988964D01*
X83404681Y-47040482D01*
X83343358Y-47073967D01*
X83273666Y-47068983D01*
X83229319Y-47040482D01*
X83177801Y-46988964D01*
X83177797Y-46988961D01*
X83177796Y-46988960D01*
X83067862Y-46932946D01*
X83067860Y-46932945D01*
X83067857Y-46932944D01*
X82976658Y-46918500D01*
X82645348Y-46918500D01*
X82554135Y-46932946D01*
X82547025Y-46935257D01*
X82477184Y-46937249D01*
X82421031Y-46905005D01*
X82318294Y-46802268D01*
X82318285Y-46802261D01*
X82180191Y-46720593D01*
X82180188Y-46720591D01*
X82041001Y-46680153D01*
X82041000Y-46680154D01*
X82041000Y-47369000D01*
X82021315Y-47436039D01*
X81968511Y-47481794D01*
X81917000Y-47493000D01*
X81791000Y-47493000D01*
X81791000Y-47619000D01*
X81771315Y-47686039D01*
X81718511Y-47731794D01*
X81667000Y-47743000D01*
X81004373Y-47743000D01*
X80986514Y-47754477D01*
X80983793Y-47754868D01*
X80982672Y-47755539D01*
X80951579Y-47759500D01*
X80750986Y-47759500D01*
X80683947Y-47739815D01*
X80663305Y-47723181D01*
X80430819Y-47490695D01*
X80397334Y-47429372D01*
X80394500Y-47403014D01*
X80394500Y-47243000D01*
X81021069Y-47243000D01*
X81541000Y-47243000D01*
X81541000Y-46680154D01*
X81540998Y-46680153D01*
X81401811Y-46720591D01*
X81401808Y-46720593D01*
X81263714Y-46802261D01*
X81263705Y-46802268D01*
X81150268Y-46915705D01*
X81150261Y-46915714D01*
X81068593Y-47053808D01*
X81068592Y-47053811D01*
X81023833Y-47207871D01*
X81023832Y-47207877D01*
X81021069Y-47243000D01*
X80394500Y-47243000D01*
X80394500Y-45659420D01*
X80394500Y-45659418D01*
X80381941Y-45612546D01*
X80383604Y-45542700D01*
X80422766Y-45484837D01*
X80486995Y-45457333D01*
X80502572Y-45456805D01*
X80502572Y-45456500D01*
X80505728Y-45456499D01*
X80505729Y-45456500D01*
X81606270Y-45456499D01*
X81709612Y-45445942D01*
X81877036Y-45390464D01*
X82027153Y-45297870D01*
X82151870Y-45173153D01*
X82244464Y-45023036D01*
X82299942Y-44855612D01*
X82310500Y-44752271D01*
X82310500Y-43930500D01*
X82330185Y-43863461D01*
X82382989Y-43817706D01*
X82434500Y-43806500D01*
X86019993Y-43806500D01*
X86045508Y-43813992D01*
G37*
%TD.AperFunction*%
%TA.AperFunction,Conductor*%
G36*
X94111834Y-40577968D02*
G01*
X94167767Y-40619840D01*
X94192184Y-40685304D01*
X94192500Y-40694150D01*
X94192500Y-41591850D01*
X94172815Y-41658889D01*
X94120011Y-41704644D01*
X94050853Y-41714588D01*
X93987297Y-41685563D01*
X93980819Y-41679531D01*
X93895207Y-41593919D01*
X93895203Y-41593916D01*
X93722490Y-41478512D01*
X93722488Y-41478511D01*
X93530590Y-41399025D01*
X93530578Y-41399022D01*
X93326862Y-41358500D01*
X93326859Y-41358500D01*
X93119141Y-41358500D01*
X93119138Y-41358500D01*
X92915421Y-41399022D01*
X92915409Y-41399025D01*
X92723511Y-41478511D01*
X92723509Y-41478512D01*
X92550796Y-41593916D01*
X92550792Y-41593919D01*
X92403919Y-41740792D01*
X92403916Y-41740796D01*
X92288512Y-41913509D01*
X92288511Y-41913511D01*
X92209025Y-42105409D01*
X92209022Y-42105421D01*
X92168500Y-42309136D01*
X92168500Y-42516863D01*
X92209021Y-42720578D01*
X92209023Y-42720583D01*
X92227020Y-42764033D01*
X92234487Y-42833503D01*
X92203211Y-42895982D01*
X92200139Y-42899165D01*
X91628124Y-43471181D01*
X91566801Y-43504666D01*
X91540443Y-43507500D01*
X90679000Y-43507500D01*
X90679000Y-45406900D01*
X90659315Y-45473939D01*
X90606511Y-45519694D01*
X90555000Y-45530900D01*
X90303000Y-45530900D01*
X90235961Y-45511215D01*
X90190206Y-45458411D01*
X90179000Y-45406900D01*
X90179000Y-43007500D01*
X90679000Y-43007500D01*
X91623999Y-43007500D01*
X91623999Y-42750028D01*
X91623998Y-42750013D01*
X91613505Y-42647302D01*
X91558358Y-42480880D01*
X91558356Y-42480875D01*
X91466315Y-42331654D01*
X91342345Y-42207684D01*
X91193124Y-42115643D01*
X91193119Y-42115641D01*
X91026697Y-42060494D01*
X91026690Y-42060493D01*
X90923986Y-42050000D01*
X90679000Y-42050000D01*
X90679000Y-43007500D01*
X90179000Y-43007500D01*
X90179000Y-42050000D01*
X89944331Y-42050000D01*
X89877292Y-42030315D01*
X89831537Y-41977511D01*
X89821593Y-41908353D01*
X89850618Y-41844797D01*
X89856625Y-41838345D01*
X90144152Y-41550817D01*
X90205475Y-41517333D01*
X90231833Y-41514499D01*
X90922251Y-41514499D01*
X90922254Y-41514499D01*
X90982342Y-41508040D01*
X91118267Y-41457342D01*
X91234404Y-41370404D01*
X91321342Y-41254267D01*
X91357227Y-41158058D01*
X91364833Y-41137666D01*
X91406704Y-41081732D01*
X91472169Y-41057316D01*
X91481014Y-41057000D01*
X92609916Y-41057000D01*
X92609919Y-41057000D01*
X92738230Y-41022619D01*
X92780337Y-40998308D01*
X92853270Y-40956201D01*
X92882344Y-40927125D01*
X92891519Y-40920770D01*
X92914509Y-40913144D01*
X92935775Y-40901532D01*
X92949897Y-40901406D01*
X92957836Y-40898773D01*
X92967495Y-40901249D01*
X92986327Y-40901081D01*
X93119138Y-40927500D01*
X93119141Y-40927500D01*
X93326861Y-40927500D01*
X93326862Y-40927499D01*
X93530586Y-40886976D01*
X93722493Y-40807486D01*
X93895204Y-40692083D01*
X93901983Y-40685304D01*
X93980819Y-40606469D01*
X94042142Y-40572984D01*
X94111834Y-40577968D01*
G37*
%TD.AperFunction*%
%TA.AperFunction,Conductor*%
G36*
X88732168Y-43921743D02*
G01*
X88772098Y-43979079D01*
X88778500Y-44018406D01*
X88778500Y-44486641D01*
X88758815Y-44553680D01*
X88706011Y-44599435D01*
X88636853Y-44609379D01*
X88576813Y-44583288D01*
X88455025Y-44485392D01*
X88331037Y-44423900D01*
X88279725Y-44376479D01*
X88262196Y-44308844D01*
X88284015Y-44242469D01*
X88323008Y-44206082D01*
X88369891Y-44178356D01*
X88482356Y-44065891D01*
X88547768Y-43955284D01*
X88598837Y-43907602D01*
X88667579Y-43895098D01*
X88732168Y-43921743D01*
G37*
%TD.AperFunction*%
%TA.AperFunction,Conductor*%
G36*
X92468889Y-38923185D02*
G01*
X92514644Y-38975989D01*
X92524588Y-39045147D01*
X92495563Y-39108703D01*
X92489531Y-39115181D01*
X92403919Y-39200792D01*
X92403916Y-39200796D01*
X92288512Y-39373509D01*
X92288511Y-39373511D01*
X92209025Y-39565409D01*
X92209022Y-39565421D01*
X92168500Y-39769136D01*
X92168500Y-39924000D01*
X92148815Y-39991039D01*
X92096011Y-40036794D01*
X92044500Y-40048000D01*
X91481014Y-40048000D01*
X91413975Y-40028315D01*
X91368220Y-39975511D01*
X91364833Y-39967334D01*
X91321344Y-39850738D01*
X91321343Y-39850737D01*
X91321342Y-39850733D01*
X91260260Y-39769136D01*
X91234404Y-39734595D01*
X91157126Y-39676747D01*
X91118267Y-39647658D01*
X90982342Y-39596960D01*
X90982338Y-39596959D01*
X90922262Y-39590500D01*
X89935748Y-39590500D01*
X89935742Y-39590501D01*
X89875655Y-39596960D01*
X89739738Y-39647655D01*
X89739730Y-39647660D01*
X89623595Y-39734595D01*
X89536660Y-39850730D01*
X89536658Y-39850733D01*
X89509331Y-39924000D01*
X89485959Y-39986662D01*
X89479500Y-40046728D01*
X89479500Y-40737166D01*
X89470855Y-40766603D01*
X89464332Y-40796594D01*
X89460576Y-40801610D01*
X89459815Y-40804205D01*
X89443184Y-40824843D01*
X89406805Y-40861223D01*
X89370680Y-40897348D01*
X89309356Y-40930832D01*
X89239665Y-40925847D01*
X89195318Y-40897347D01*
X88896272Y-40598301D01*
X88896270Y-40598299D01*
X88861056Y-40577968D01*
X88823338Y-40556191D01*
X88823337Y-40556191D01*
X88781230Y-40531881D01*
X88781231Y-40531881D01*
X88715807Y-40514351D01*
X88661833Y-40499888D01*
X88602174Y-40463524D01*
X88574852Y-40414711D01*
X88563318Y-40375008D01*
X88482356Y-40238109D01*
X88482354Y-40238107D01*
X88482351Y-40238103D01*
X88369896Y-40125648D01*
X88369887Y-40125641D01*
X88232992Y-40044682D01*
X88232987Y-40044680D01*
X88080262Y-40000309D01*
X88080256Y-40000308D01*
X88047614Y-39997739D01*
X88044567Y-39997500D01*
X88044566Y-39997500D01*
X86667444Y-39997500D01*
X86667422Y-39997501D01*
X86631745Y-40000308D01*
X86631742Y-40000309D01*
X86479008Y-40044682D01*
X86479006Y-40044682D01*
X86479006Y-40044683D01*
X86342112Y-40125641D01*
X86342103Y-40125648D01*
X86229648Y-40238103D01*
X86229641Y-40238112D01*
X86148682Y-40375007D01*
X86148680Y-40375012D01*
X86104309Y-40527737D01*
X86104308Y-40527743D01*
X86101500Y-40563426D01*
X86101500Y-41440555D01*
X86101501Y-41440577D01*
X86104308Y-41476254D01*
X86104308Y-41476257D01*
X86104309Y-41476258D01*
X86148682Y-41628992D01*
X86148683Y-41628993D01*
X86229641Y-41765887D01*
X86229648Y-41765896D01*
X86342103Y-41878351D01*
X86342107Y-41878354D01*
X86342109Y-41878356D01*
X86479008Y-41959318D01*
X86519284Y-41971019D01*
X86631737Y-42003690D01*
X86631740Y-42003690D01*
X86631742Y-42003691D01*
X86667433Y-42006500D01*
X87675115Y-42006499D01*
X87695330Y-42012434D01*
X87716367Y-42013562D01*
X87728179Y-42022079D01*
X87742154Y-42026183D01*
X87755951Y-42042106D01*
X87773039Y-42054428D01*
X87778371Y-42067979D01*
X87787909Y-42078987D01*
X87790907Y-42099842D01*
X87798621Y-42119446D01*
X87797292Y-42144247D01*
X87797853Y-42148146D01*
X87796733Y-42154689D01*
X87788180Y-42197690D01*
X87755795Y-42259601D01*
X87695080Y-42294176D01*
X87666562Y-42297500D01*
X86667444Y-42297500D01*
X86667422Y-42297501D01*
X86631745Y-42300308D01*
X86631742Y-42300309D01*
X86479008Y-42344682D01*
X86479006Y-42344682D01*
X86479006Y-42344683D01*
X86342112Y-42425641D01*
X86342103Y-42425648D01*
X86229648Y-42538103D01*
X86229641Y-42538112D01*
X86148682Y-42675007D01*
X86148680Y-42675012D01*
X86139069Y-42708095D01*
X86101463Y-42766981D01*
X86037991Y-42796187D01*
X86019993Y-42797500D01*
X82434499Y-42797500D01*
X82367460Y-42777815D01*
X82321705Y-42725011D01*
X82310499Y-42673500D01*
X82310499Y-41851735D01*
X82310498Y-41851720D01*
X82309129Y-41838319D01*
X82299942Y-41748388D01*
X82244464Y-41580964D01*
X82244460Y-41580958D01*
X82244459Y-41580955D01*
X82151872Y-41430850D01*
X82151869Y-41430846D01*
X82027153Y-41306130D01*
X82027149Y-41306127D01*
X81877044Y-41213540D01*
X81877038Y-41213537D01*
X81877036Y-41213536D01*
X81709612Y-41158058D01*
X81606271Y-41147500D01*
X80505735Y-41147500D01*
X80505720Y-41147501D01*
X80402386Y-41158058D01*
X80234966Y-41213535D01*
X80234961Y-41213537D01*
X80086640Y-41305024D01*
X80058152Y-41312818D01*
X80030494Y-41323162D01*
X80024833Y-41321935D01*
X80019248Y-41323464D01*
X79991067Y-41314619D01*
X79962208Y-41308367D01*
X79955747Y-41303534D01*
X79952584Y-41302542D01*
X79941256Y-41293247D01*
X79940987Y-41293571D01*
X79940975Y-41293561D01*
X79935093Y-41288189D01*
X79933936Y-41287240D01*
X79932751Y-41286057D01*
X79932748Y-41286052D01*
X79932700Y-41286004D01*
X79932677Y-41285983D01*
X79073818Y-40427124D01*
X79040333Y-40365801D01*
X79037499Y-40339443D01*
X79037499Y-39274748D01*
X79037499Y-39274746D01*
X79031040Y-39214658D01*
X78993937Y-39115181D01*
X78977396Y-39070834D01*
X78972411Y-39001143D01*
X79005895Y-38939819D01*
X79067218Y-38906334D01*
X79093577Y-38903500D01*
X92401850Y-38903500D01*
X92468889Y-38923185D01*
G37*
%TD.AperFunction*%
%TD*%
M02*
